<svg width="393" height="240" viewBox="0 0 393 240" fill="none" xmlns="http://www.w3.org/2000/svg">
<rect width="393" height="240" rx="12" fill="#303556"/>
<path d="M310.581 106.61V88.87L295.269 80L279.957 88.87V106.61L295.269 115.48L310.581 106.61Z" fill="#3F3C6A"/>
<path d="M263 119.39V137.13L278.312 146L293.625 137.13V119.39L278.312 110.52L263 119.39Z" fill="#3F3C6A"/>
<path d="M343.791 106.61V88.87L328.478 80L313.166 88.87V106.61L328.478 115.48L343.791 106.61Z" fill="#3F3C6A"/>
<path d="M296.209 119.39V137.13L311.522 146L326.834 137.13V119.39L311.522 110.52L296.209 119.39Z" fill="#3F3C6A"/>
<path d="M377 106.61V88.87L361.688 80L346.375 88.87V106.61L361.688 115.48L377 106.61Z" fill="#3F3C6A"/>
<path d="M329.419 119.39V137.13L344.731 146L360.043 137.13V119.39L344.731 110.52L329.419 119.39Z" fill="#3F3C6A"/>
<path d="M58.7181 164H32V190.859H58.7181V164Z" fill="#3F3C6A"/>
<path d="M91.6842 164H64.9661V190.859H91.6842V164Z" fill="#3F3C6A"/>
<path d="M58.7181 197.141H32V224H58.7181V197.141Z" fill="#3F3C6A"/>
<path d="M123.376 164H96.6579V190.859H123.376V164Z" fill="#3F3C6A"/>
<path d="M156.342 164H129.624V190.859H156.342V164Z" fill="#3F3C6A"/>
<path d="M123.376 197.141H96.6579V224H123.376V197.141Z" fill="#3F3C6A"/>
<path d="M188.034 164H161.316V190.859H188.034V164Z" fill="#3F3C6A"/>
<path d="M221 164H194.282V190.859H221V164Z" fill="#3F3C6A"/>
<path d="M188.034 197.141H161.316V224H188.034V197.141Z" fill="#3F3C6A"/>
</svg>
