<svg width="108" height="112" viewBox="0 0 108 112" fill="none" xmlns="http://www.w3.org/2000/svg">
<circle cx="50" cy="50" r="50" fill="#E6EAFF"/>
<path d="M79.1699 70.5C81.0944 67.1667 85.9056 67.1667 87.8301 70.5L100.387 92.25C102.312 95.5833 99.9064 99.75 96.0574 99.75H70.9426C67.0936 99.75 64.688 95.5833 66.6125 92.25L79.1699 70.5Z" fill="#E6EAFF"/>
<path d="M50.0149 30.2439C51.9494 30.2439 53.9127 30.5013 55.7894 30.9874C60.9287 25.2679 70.3122 22.8657 74.3254 24.5244C78.3675 26.183 73.1128 44.5427 73.1128 44.5427C74.7585 47.6026 76 50.9485 76 54.3802C76 67.1348 64.3645 76 50.0149 76C35.6654 76 24.0298 67.4207 24.0298 54.3802C24.0298 50.8056 25.4734 47.5168 26.9171 44.5427C26.9171 44.5427 21.4602 26.183 25.4734 24.5244C29.4867 22.8657 39.1012 25.1821 44.2405 30.9016C46.1345 30.4701 48.0714 30.2495 50.0149 30.2439Z" stroke="#2749FC" stroke-width="4" stroke-linecap="round" stroke-linejoin="round"/>
<path d="M39 56V58" stroke="#2749FC" stroke-width="4" stroke-linecap="round" stroke-linejoin="round"/>
<path d="M62 56V58" stroke="#2749FC" stroke-width="4" stroke-linecap="round" stroke-linejoin="round"/>
<path d="M48 63H52L50 65L48 63Z" stroke="#2749FC" stroke-width="4" stroke-linecap="round" stroke-linejoin="round"/>
</svg>
