<svg width="175" height="40" viewBox="0 0 175 40" fill="none" xmlns="http://www.w3.org/2000/svg">
<path d="M11.6667 27.1667C15.3333 27.1667 18.3333 24.1167 18.3333 20.4167C18.3333 18.4833 17.3833 16.65 15.4833 15.1C13.5833 13.55 12.15 11.25 11.6667 8.83334C11.1833 11.25 9.76667 13.5667 7.85 15.1C5.93333 16.6333 5 18.5 5 20.4167C5 24.1167 8 27.1667 11.6667 27.1667Z" stroke="#2749FC" stroke-width="3" stroke-linecap="round" stroke-linejoin="round"/>
<path d="M20.9333 11C22.0796 9.16854 22.8922 7.14841 23.3333 5.03333C24.1667 9.2 26.6667 13.2 30 15.8667C33.3333 18.5333 35 21.7 35 25.0333C35.0095 27.3372 34.3348 29.5919 33.0613 31.5118C31.7879 33.4317 29.973 34.9303 27.8469 35.8175C25.7207 36.7047 23.379 36.9407 21.1186 36.4955C18.8582 36.0502 16.7809 34.9439 15.15 33.3167" stroke="#2749FC" stroke-width="3" stroke-linecap="round" stroke-linejoin="round"/>
<path d="M62.3828 10.2432C61.7676 12.3525 61.1182 14.335 60.4346 16.1904C59.751 18.0361 59.0723 19.7354 58.3984 21.2881C57.7246 22.8408 57.0801 24.2324 56.4648 25.4629C55.8594 26.6836 55.3174 27.7236 54.8389 28.583C54.3701 29.4326 53.9941 30.082 53.7109 30.5312C53.4375 30.9805 53.2959 31.2051 53.2861 31.2051L50.1953 31.4248C48.9941 29.6963 47.8027 27.748 46.6211 25.5801C46.123 24.6621 45.6006 23.6514 45.0537 22.5479C44.5068 21.4443 43.9648 20.2627 43.4277 19.0029C42.9004 17.7334 42.3828 16.3955 41.875 14.9893C41.3672 13.583 40.9033 12.1182 40.4834 10.5947L45.5518 9.55469C45.7178 11.0488 45.9424 12.4502 46.2256 13.7588C46.5186 15.0576 46.8457 16.2881 47.207 17.4502C47.5684 18.6025 47.959 19.6963 48.3789 20.7314C48.7988 21.7666 49.2285 22.7676 49.668 23.7344C50.1074 24.6914 50.5469 25.6289 50.9863 26.5469C51.4258 27.4551 51.8457 28.3584 52.2461 29.2568C53.1543 27.5283 53.9209 25.7998 54.5459 24.0713C55.1807 22.3428 55.7178 20.6436 56.1572 18.9736C56.6064 17.3037 56.9775 15.6777 57.2705 14.0957C57.5732 12.5039 57.8369 10.9902 58.0615 9.55469L62.3828 10.2432ZM70.835 26.8838C70.0635 26.8838 69.2969 26.7861 68.5352 26.5908C67.7832 26.3857 67.0996 26.0635 66.4844 25.624C66.4941 26.0049 66.5186 26.3955 66.5576 26.7959C66.5967 27.1963 66.6602 27.5869 66.748 27.9678C66.8457 28.3389 66.9678 28.6904 67.1143 29.0225C67.2705 29.3545 67.4658 29.6475 67.7002 29.9014C67.9443 30.1455 68.2324 30.3408 68.5645 30.4873C68.9062 30.6338 69.3115 30.707 69.7803 30.707C70.2197 30.707 70.6299 30.6289 71.0107 30.4727C71.3916 30.3066 71.7236 30.0869 72.0068 29.8135C72.2998 29.54 72.5391 29.2178 72.7246 28.8467C72.9102 28.4756 73.0371 28.0752 73.1055 27.6455L76.709 28.4512C76.4258 29.0566 76.0254 29.5693 75.5078 29.9893C75 30.4092 74.4336 30.7461 73.8086 31C73.1836 31.2637 72.5293 31.4541 71.8457 31.5713C71.1719 31.6885 70.5225 31.7471 69.8975 31.7471C68.7744 31.7471 67.7734 31.5811 66.8945 31.249C66.0156 30.917 65.2734 30.4385 64.668 29.8135C64.0723 29.1885 63.6133 28.4316 63.291 27.543C62.9785 26.6445 62.8223 25.6387 62.8223 24.5254C62.8223 23.4414 63.0078 22.4209 63.3789 21.4639C63.75 20.4971 64.2676 19.6572 64.9316 18.9443C65.5957 18.2314 66.3916 17.6699 67.3193 17.2598C68.2568 16.8398 69.2871 16.6299 70.4102 16.6299C71.2305 16.6299 72.0459 16.7324 72.8564 16.9375C73.667 17.1328 74.3945 17.4453 75.0391 17.875C75.6836 18.2949 76.2012 18.8369 76.5918 19.501C76.9922 20.165 77.1924 20.9658 77.1924 21.9033C77.1924 22.8213 77.0068 23.5977 76.6357 24.2324C76.2744 24.8574 75.7959 25.3701 75.2002 25.7705C74.6045 26.1611 73.9258 26.4443 73.1641 26.6201C72.4023 26.7959 71.626 26.8838 70.835 26.8838ZM70.2051 17.7139C69.7559 17.7139 69.3555 17.8066 69.0039 17.9922C68.6621 18.168 68.3545 18.4121 68.0811 18.7246C67.8174 19.0371 67.5928 19.3936 67.4072 19.7939C67.2217 20.1943 67.0654 20.6143 66.9385 21.0537C66.8115 21.4932 66.7139 21.9375 66.6455 22.3867C66.5771 22.8359 66.5332 23.2559 66.5137 23.6465C66.8848 24.2812 67.3779 24.8037 67.9932 25.2139C68.6084 25.6143 69.3213 25.8145 70.1318 25.8145C70.6494 25.8145 71.1133 25.6973 71.5234 25.4629C71.9336 25.2188 72.2803 24.9062 72.5635 24.5254C72.8467 24.1445 73.0615 23.7197 73.208 23.251C73.3643 22.7822 73.4424 22.3135 73.4424 21.8447C73.4424 21.376 73.374 20.8975 73.2373 20.4092C73.1006 19.9111 72.8955 19.4668 72.6221 19.0762C72.3584 18.6758 72.0215 18.3486 71.6113 18.0947C71.2109 17.8408 70.7422 17.7139 70.2051 17.7139ZM84.8389 10.5654L84.6631 16.5713H88.1348V17.8018H84.6338L84.2383 31.0879L81.543 31.3369L81.2646 17.8018H77.6611V16.5713H81.2354L81.1475 11.5029L84.8389 10.5654ZM109.829 20.3799C109.829 21.4639 109.678 22.4941 109.375 23.4707C109.082 24.4375 108.667 25.3359 108.13 26.166C107.603 26.9961 106.973 27.748 106.24 28.4219C105.508 29.0859 104.697 29.6572 103.809 30.1357C102.93 30.6045 101.992 30.9658 100.996 31.2197C100.01 31.4736 98.9941 31.6006 97.9492 31.6006C97.4219 31.6006 96.8066 31.5957 96.1035 31.5859C95.4102 31.5762 94.6973 31.5518 93.9648 31.5127C93.2422 31.4736 92.5391 31.4102 91.8555 31.3223C91.1816 31.2344 90.6055 31.1172 90.127 30.9707V30.8242C90.127 29.6035 90.1367 28.3926 90.1562 27.1914C90.1855 25.9902 90.2148 24.7793 90.2441 23.5586C90.293 21.3223 90.3418 19.1006 90.3906 16.8936C90.4492 14.6768 90.5078 12.4502 90.5664 10.2139C91.9141 9.99902 93.2764 9.84766 94.6533 9.75977C96.04 9.66211 97.4219 9.61328 98.7988 9.61328C99.7852 9.61328 100.742 9.74023 101.67 9.99414C102.598 10.248 103.467 10.6094 104.277 11.0781C105.098 11.5469 105.845 12.1084 106.519 12.7627C107.202 13.4072 107.788 14.1299 108.276 14.9307C108.765 15.7314 109.146 16.5908 109.419 17.5088C109.692 18.4268 109.829 19.3838 109.829 20.3799ZM105.786 20.043C105.786 18.5781 105.62 17.2891 105.288 16.1758C104.956 15.0625 104.438 14.1299 103.735 13.3779C103.032 12.6162 102.139 12.0449 101.055 11.6641C99.9805 11.2734 98.6963 11.0781 97.2021 11.0781C96.7822 11.0781 96.3574 11.083 95.9277 11.0928C95.498 11.0928 95.0635 11.1074 94.624 11.1367L93.6279 29.9453C94.3604 30.1016 95.1025 30.1895 95.8545 30.209C96.6064 30.2188 97.3438 30.2236 98.0664 30.2236C98.9355 30.2236 99.7314 30.0771 100.454 29.7842C101.177 29.4912 101.821 29.0957 102.388 28.5977C102.964 28.0898 103.462 27.499 103.882 26.8252C104.312 26.1514 104.668 25.4385 104.951 24.6865C105.234 23.9346 105.444 23.1631 105.581 22.3721C105.718 21.5713 105.786 20.7949 105.786 20.043ZM127.788 24.1592C127.788 25.3408 127.554 26.3906 127.085 27.3086C126.626 28.2168 126.011 28.9883 125.239 29.623C124.478 30.248 123.594 30.7217 122.588 31.0439C121.582 31.376 120.537 31.542 119.453 31.542C118.379 31.542 117.388 31.3564 116.479 30.9854C115.581 30.6143 114.805 30.1016 114.15 29.4473C113.496 28.7832 112.983 28.002 112.612 27.1035C112.251 26.1953 112.07 25.2041 112.07 24.1299C112.07 23.0752 112.285 22.0889 112.715 21.1709C113.154 20.2529 113.735 19.4521 114.458 18.7686C115.19 18.0752 116.03 17.5332 116.978 17.1426C117.925 16.7422 118.916 16.542 119.951 16.542C121.074 16.542 122.114 16.7275 123.071 17.0986C124.028 17.4697 124.854 17.9922 125.547 18.666C126.25 19.3398 126.797 20.1455 127.188 21.083C127.588 22.0107 127.788 23.0361 127.788 24.1592ZM124.097 24.0127C124.097 23.5732 124.067 23.1191 124.009 22.6504C123.95 22.1719 123.853 21.708 123.716 21.2588C123.589 20.7998 123.418 20.3701 123.203 19.9697C122.998 19.5596 122.739 19.2031 122.427 18.9004C122.114 18.5879 121.748 18.3438 121.328 18.168C120.908 17.9824 120.43 17.8896 119.893 17.8896C119.072 17.8896 118.394 18.0898 117.856 18.4902C117.319 18.8809 116.895 19.3838 116.582 19.999C116.279 20.6045 116.064 21.2734 115.938 22.0059C115.82 22.7383 115.762 23.4365 115.762 24.1006C115.762 24.54 115.786 24.999 115.835 25.4775C115.894 25.9463 115.986 26.4102 116.113 26.8691C116.24 27.3281 116.406 27.7676 116.611 28.1875C116.816 28.5977 117.07 28.9639 117.373 29.2861C117.686 29.5986 118.047 29.8477 118.457 30.0332C118.877 30.2188 119.355 30.3115 119.893 30.3115C120.439 30.3115 120.923 30.2188 121.343 30.0332C121.763 29.8379 122.124 29.584 122.427 29.2715C122.739 28.9492 123.003 28.5781 123.218 28.1582C123.433 27.7285 123.604 27.2842 123.73 26.8252C123.857 26.3564 123.95 25.8828 124.009 25.4043C124.067 24.916 124.097 24.4521 124.097 24.0127ZM134.526 16.9668L134.38 19.6328C134.644 19.1543 134.951 18.71 135.303 18.2998C135.664 17.8799 136.064 17.5283 136.504 17.2451C136.953 16.9521 137.437 16.7373 137.954 16.6006C138.481 16.4639 139.038 16.4346 139.624 16.5127C140.552 16.6494 141.338 16.9326 141.982 17.3623C142.627 17.792 143.145 18.3389 143.535 19.0029C143.936 19.667 144.224 20.4385 144.399 21.3174C144.575 22.1963 144.663 23.1533 144.663 24.1885C144.663 24.7646 144.614 25.3701 144.517 26.0049C144.419 26.6396 144.287 27.2744 144.121 27.9092C143.955 28.5342 143.765 29.1494 143.55 29.7549C143.345 30.3604 143.135 30.9268 142.92 31.4541L139.302 31.0879C139.321 31.0781 139.385 30.9609 139.492 30.7363C139.6 30.5117 139.727 30.209 139.873 29.8281C140.02 29.4473 140.171 29.0029 140.327 28.4951C140.493 27.9775 140.645 27.4209 140.781 26.8252C140.928 26.2295 141.045 25.6045 141.133 24.9502C141.23 24.2861 141.279 23.6221 141.279 22.958C141.279 22.2256 141.216 21.5762 141.089 21.0098C140.962 20.4434 140.762 19.9648 140.488 19.5742C140.225 19.1836 139.883 18.8857 139.463 18.6807C139.043 18.4756 138.535 18.373 137.939 18.373C137.422 18.373 136.963 18.5146 136.562 18.7979C136.162 19.0713 135.811 19.4277 135.508 19.8672C135.205 20.3066 134.946 20.8047 134.731 21.3613C134.517 21.9082 134.336 22.46 134.189 23.0166L133.809 30.9121L131.084 31.1465L130.513 17.2891L134.526 16.9668ZM162.681 24.1592C162.681 25.3408 162.446 26.3906 161.978 27.3086C161.519 28.2168 160.903 28.9883 160.132 29.623C159.37 30.248 158.486 30.7217 157.48 31.0439C156.475 31.376 155.43 31.542 154.346 31.542C153.271 31.542 152.28 31.3564 151.372 30.9854C150.474 30.6143 149.697 30.1016 149.043 29.4473C148.389 28.7832 147.876 28.002 147.505 27.1035C147.144 26.1953 146.963 25.2041 146.963 24.1299C146.963 23.0752 147.178 22.0889 147.607 21.1709C148.047 20.2529 148.628 19.4521 149.351 18.7686C150.083 18.0752 150.923 17.5332 151.87 17.1426C152.817 16.7422 153.809 16.542 154.844 16.542C155.967 16.542 157.007 16.7275 157.964 17.0986C158.921 17.4697 159.746 17.9922 160.439 18.666C161.143 19.3398 161.689 20.1455 162.08 21.083C162.48 22.0107 162.681 23.0361 162.681 24.1592ZM158.989 24.0127C158.989 23.5732 158.96 23.1191 158.901 22.6504C158.843 22.1719 158.745 21.708 158.608 21.2588C158.481 20.7998 158.311 20.3701 158.096 19.9697C157.891 19.5596 157.632 19.2031 157.319 18.9004C157.007 18.5879 156.641 18.3438 156.221 18.168C155.801 17.9824 155.322 17.8896 154.785 17.8896C153.965 17.8896 153.286 18.0898 152.749 18.4902C152.212 18.8809 151.787 19.3838 151.475 19.999C151.172 20.6045 150.957 21.2734 150.83 22.0059C150.713 22.7383 150.654 23.4365 150.654 24.1006C150.654 24.54 150.679 24.999 150.728 25.4775C150.786 25.9463 150.879 26.4102 151.006 26.8691C151.133 27.3281 151.299 27.7676 151.504 28.1875C151.709 28.5977 151.963 28.9639 152.266 29.2861C152.578 29.5986 152.939 29.8477 153.35 30.0332C153.77 30.2188 154.248 30.3115 154.785 30.3115C155.332 30.3115 155.815 30.2188 156.235 30.0332C156.655 29.8379 157.017 29.584 157.319 29.2715C157.632 28.9492 157.896 28.5781 158.11 28.1582C158.325 27.7285 158.496 27.2842 158.623 26.8252C158.75 26.3564 158.843 25.8828 158.901 25.4043C158.96 24.916 158.989 24.4521 158.989 24.0127ZM169.478 16.7178L169.272 20.5557C169.526 20.0869 169.824 19.6279 170.166 19.1787C170.508 18.7197 170.879 18.2949 171.279 17.9043C171.689 17.5039 172.119 17.1426 172.568 16.8203C173.027 16.4883 173.496 16.2148 173.975 16V20.8926C173.77 20.668 173.535 20.5068 173.271 20.4092C173.008 20.3115 172.725 20.2627 172.422 20.2627C171.973 20.2627 171.572 20.3359 171.221 20.4824C170.869 20.6289 170.562 20.8291 170.298 21.083C170.034 21.3271 169.81 21.6201 169.624 21.9619C169.438 22.2939 169.282 22.6455 169.155 23.0166L168.73 30.9121L166.152 31.0879L165.303 16.9668L169.478 16.7178Z" fill="#2749FC"/>
</svg>
