<svg width="26" height="26" viewBox="0 0 26 26" fill="none" xmlns="http://www.w3.org/2000/svg">
<rect x="0.5" y="0.5" width="25" height="25" rx="8.5" fill="#FFE8E8"/>
<rect x="0.5" y="0.5" width="25" height="25" rx="8.5" stroke="#FFE8E8"/>
<path d="M8 17.3C10.2 17.3 12 15.47 12 13.25C12 12.09 11.43 10.99 10.29 10.06C9.15 9.13005 8.29 7.75005 8 6.30005C7.71 7.75005 6.86 9.14005 5.71 10.06C4.56 10.98 4 12.1 4 13.25C4 15.47 5.8 17.3 8 17.3Z" stroke="#FF3434" stroke-width="2" stroke-linecap="round" stroke-linejoin="round"/>
<path d="M13.56 7.60002C14.2478 6.50114 14.7353 5.28906 15 4.02002C15.5 6.52002 17 8.92002 19 10.52C21 12.12 22 14.02 22 16.02C22.0057 17.4023 21.6009 18.7552 20.8368 19.9071C20.0727 21.059 18.9838 21.9582 17.7081 22.4905C16.4324 23.0229 15.0274 23.1644 13.6712 22.8973C12.3149 22.6302 11.0685 21.9664 10.09 20.99" stroke="#FF3434" stroke-width="2" stroke-linecap="round" stroke-linejoin="round"/>
</svg>
