<?xml version="1.0" standalone="no"?>
  <!DOCTYPE svg PUBLIC "-//W3C//DTD SVG 1.1//EN" "http://www.w3.org/Graphics/SVG/1.1/DTD/svg11.dtd" >
  <svg>
  <metadata>
  Created by font-carrier
  </metadata>
  <defs>
  <font id="Founder" horiz-adv-x="868" vert-adv-y="868" >
    <font-face
      
      font-family="Founder"
      
      font-weight="400"
      
      font-stretch="normal"
      
      units-per-em="1000"
      
      ascent="750"
      
      descent="-250"
      
    />
      <missing-glyph />

      

      
      <glyph glyph-name="uni65" unicode="&#x65;" d="M453 125C409 123 367 109 329 87C300 69 274 47 246 28C224 13 199 0 171 5C138 11 109 30 98 62C89 88 93 118 104 143C114 142 125 140 135 138C161 133 198 123 216 150C232 173 221 208 194 216C166 224 137 205 119 185C109 174 101 161 94 147C91 147 88 147 84 147C53 146 23 137-5 123C-8 121-3 120-1 121C24 133 51 141 78 143C83 143 88 143 93 143C77 104 77 57 110 27C123 15 139 7 155 3C170-1 186-2 201 0C230 6 255 24 277 41C300 59 323 76 349 90C382 107 417 116 454 120C455 120 459 121 459 123C458 125 455 125 453 125ZM106 148C117 173 136 197 162 208C175 214 190 215 201 206C213 198 217 183 216 170C215 156 207 142 193 138C179 133 163 137 149 139C134 142 120 145 105 146C105 147 106 147 106 148Z"  horiz-adv-x="450" vert-adv-y="1000"  />

      
      <glyph glyph-name="uni66" unicode="&#x66;" d="M344 124C328 102 299 91 275 82C243 72 209 66 176 66C161 66 146 67 132 70C130 70 128 70 126 71C124 79 121 88 118 96C114 107 108 123 94 124C88 124 82 122 78 117C75 114 76 105 77 102C78 97 79 93 82 89C90 77 103 71 118 67C121 53 123 39 125 25C132-32 133-93 122-150C118-173 110-198 98-218C93-225 87-232 80-237C77-240 73-241 70-242C68-243 67-243 65-244C63-244 64-244 63-244C62-244 62-244 61-244C61-244 61-244 61-244C61-244 61-244 61-244C58-244 56-243 53-241C50-240 47-238 45-235C39-229 35-221 31-213C21-189 17-162 14-136C5-67 6 3 9 72C11 104 13 136 16 168C18 190 21 212 25 234C30 259 44 282 68 293C85 301 107 298 118 282C129 267 128 247 123 231C114 199 93 172 72 147C71 145 75 145 76 146C93 164 109 184 121 206C128 220 134 236 135 252C136 274 124 293 103 299C81 306 57 297 41 282C23 265 16 242 12 219C3 160-1 100-3 41C-5-26-5-95 7-162C11-185 16-209 28-228C37-243 51-251 69-248C88-246 101-231 110-215C123-194 127-170 131-146C136-117 138-87 138-57C138-28 137 1 133 30C131 41 130 53 127 64C134 63 141 62 147 61C180 58 215 61 247 68C278 75 309 85 335 103C343 109 350 115 356 123C358 127 346 128 344 124ZM100 83C92 88 87 96 86 106C86 109 86 111 86 114C87 116 87 116 89 117C89 118 90 118 91 119C91 119 91 119 92 119C91 119 93 119 92 119C92 119 92 119 92 119C92 119 92 119 93 119C93 119 93 119 93 119C93 119 93 119 93 119C94 118 94 118 94 118C97 117 98 115 100 113C104 107 107 100 110 93C112 87 114 80 116 74C110 76 105 79 100 83Z"  horiz-adv-x="350" vert-adv-y="1000"  />

      
      <glyph glyph-name="uni67" unicode="&#x67;" d="M290 127C270 106 248 89 224 75C224 75 224 75 224 75C221 92 214 116 195 123C164 134 137 110 119 89C108 75 97 61 87 47C78 36 69 23 58 13C51 7 44 4 34 9C25 14 19 25 15 35C3 64 5 99 13 128C24 166 51 197 89 210C105 216 122 217 139 214C157 212 175 203 191 194C192 194 195 195 194 196C172 212 144 221 117 220C92 220 67 210 48 195C19 174 4 140-1 105C-5 78-3 44 13 20C19 12 28 5 38 3C49 1 58 6 66 13C77 23 85 35 94 47C105 61 115 75 127 89C142 105 171 134 195 117C203 111 207 102 211 94C213 86 215 78 217 70C201 61 186 53 169 45C151 36 132 28 114 18C98 11 83 2 70-10C59-20 51-34 47-49C43-64 44-80 45-95C48-127 59-165 87-185C109-201 143-202 164-184C184-166 195-139 204-115C215-84 222-50 226-17C229 11 230 39 226 67C231 70 236 73 241 76C262 90 282 106 299 125C302 128 292 129 290 127ZM218 57C221 25 219-8 213-40C208-72 200-105 186-135C177-154 164-180 143-189C131-194 114-192 102-186C87-178 77-164 70-149C56-120 51-84 57-52C63-18 95 2 123 16C155 32 187 45 218 62C218 60 218 58 218 57Z"  horiz-adv-x="295" vert-adv-y="1000"  />

      
      <glyph glyph-name="uni64" unicode="&#x64;" d="M327 125C324 126 320 126 318 125C297 114 276 103 255 95C229 86 203 81 176 82C168 83 159 83 151 85C157 95 162 106 166 116C182 154 194 193 201 233C208 273 211 314 205 355C201 391 189 427 166 455C153 471 138 485 119 492C96 500 71 499 48 491C-2 472-20 419-26 370C-31 337-25 302-17 270C-10 242 0 216 14 191C6 169 0 145-2 122C-5 97-5 70 2 45C9 24 25 5 48 2C73-2 97 10 113 28C127 43 138 61 148 79C173 74 199 75 223 79C260 86 294 103 327 121C329 122 329 124 327 125ZM10 228C-4 262-13 299-15 336C-15 354-14 371-10 388C-6 413 3 439 19 459C35 478 58 490 83 491C106 492 126 482 143 466C199 412 203 322 193 250C187 209 176 169 161 130C155 116 149 101 142 87C133 90 125 92 118 96C101 104 86 116 73 129C54 147 39 169 26 193C30 204 35 214 41 225C50 242 60 258 76 270C91 281 113 283 128 271C128 271 131 271 130 272C113 289 85 285 67 273C44 258 31 231 20 207C20 206 20 206 20 206C16 213 13 220 10 228ZM109 37C96 20 74 3 51 7C27 12 15 37 11 59C5 85 7 114 12 140C14 153 17 166 21 178C24 173 28 167 31 162C52 131 80 104 115 89C122 85 130 83 138 81C130 66 120 51 109 37Z"  horiz-adv-x="332" vert-adv-y="1000"  />

      
      <glyph glyph-name="uni68" unicode="&#x68;" d="M467 129C458 122 447 117 437 112C429 108 421 104 412 101C400 97 387 96 376 99C353 103 336 121 323 139C309 158 298 179 282 196C278 201 273 206 268 210C315 247 350 298 362 357C368 388 369 420 356 449C347 468 333 486 312 494C292 502 268 505 246 503C159 493 130 396 115 324C103 264 97 202 96 140C81 137 65 134 50 132C32 130 15 129-2 128C-6 128-6 125-2 125C31 125 64 128 96 135C96 121 96 107 97 93C98 69 98 44 105 20C106 15 108 8 113 4C117 2 124 2 128 5C129 7 131 10 132 12C142 36 148 60 157 84C166 111 176 137 189 163C213 173 236 186 257 201C258 202 259 202 259 203C260 203 260 202 260 202C268 195 275 186 281 178C295 158 307 137 324 119C341 101 364 90 389 90C403 90 416 94 428 98C436 101 443 105 451 109C459 113 467 119 475 125C480 128 470 131 467 129ZM118 245C122 284 129 323 139 361C149 396 162 432 186 460C201 476 220 489 242 494C262 498 284 496 304 488C324 480 338 461 346 441C352 425 354 409 354 392C353 331 323 273 280 231C274 225 268 219 261 214C251 220 239 223 226 221C215 219 207 212 200 204C190 193 183 181 177 169C176 167 175 165 174 163C154 155 133 148 112 143C112 177 114 211 118 245ZM114 8C114 8 114 8 114 8C114 8 114 8 114 8ZM139 75C134 62 130 48 125 35C123 30 122 25 120 20C118 26 117 33 116 39C112 68 111 98 111 128C111 131 111 135 111 138C131 142 151 148 170 155C158 129 148 102 139 75ZM193 172C194 173 195 174 196 176C202 187 209 198 218 207C222 210 226 212 229 214C229 214 230 214 230 214C230 214 230 214 230 214C230 214 231 214 231 214C231 214 232 214 232 214C233 214 233 214 234 214C234 214 234 214 234 214C234 214 234 214 234 214C236 214 237 214 238 214C238 214 238 214 238 214C238 214 239 214 239 214C239 214 240 213 240 213C241 213 242 213 243 212C243 213 245 212 246 212C247 211 248 210 249 210C250 209 252 208 253 208C234 193 214 181 193 172Z"  horiz-adv-x="473" vert-adv-y="1000"  />

      
      <glyph glyph-name="uni69" unicode="&#x69;" d="M93 98C93 98 93 98 93 98C93 98 93 98 93 98L93 98ZM303 125C298 121 293 118 288 114C282 109 276 104 269 99C254 87 239 75 224 64C209 52 194 41 179 30C168 23 158 15 146 10C145 9 146 9 145 9C144 9 144 9 143 9C143 9 143 9 143 9C141 9 140 11 138 14C135 22 136 33 137 41C140 70 147 99 153 127C157 141 160 155 162 170C164 180 165 191 165 202C164 208 162 215 155 217C144 221 130 212 121 206C99 193 80 176 60 161C40 144 18 129-5 117C-8 115-3 114-1 114C18 122 36 135 53 147C71 160 89 175 107 188C114 194 122 200 130 205C136 208 141 211 148 213C149 213 149 213 150 213C150 213 150 213 150 213C150 213 151 212 152 212C154 209 154 206 155 203C156 193 154 182 153 172C150 158 147 144 144 130C138 101 130 73 127 44C125 29 123 3 144 3C153 4 162 11 170 15C184 24 197 34 211 44C230 59 249 74 269 89C277 95 285 102 293 108C299 113 304 118 310 123C312 125 305 126 303 125ZM119 277C131 279 142 283 153 287C165 290 176 294 188 298C189 299 191 300 189 302C188 303 185 303 183 302C171 299 160 296 149 292C139 289 129 286 119 282C117 282 113 281 114 278C115 277 118 277 119 277Z"  horiz-adv-x="305" vert-adv-y="1000"  />

      
      <glyph glyph-name="uni6a" unicode="&#x6a;" d="M341 126C319 104 286 104 257 106C243 107 230 109 216 111C217 128 217 146 217 164C217 192 216 220 212 248C210 264 207 284 195 297C188 305 175 306 165 306C144 307 124 300 107 290C87 278 71 262 60 243C49 225 44 205 44 185C43 161 48 137 56 115C52 113 48 111 44 109C19 95 8 69 2 42C-7 7-9-29-8-65C-8-102-3-140 9-175C17-202 31-231 57-245C78-257 105-254 126-244C139-238 149-227 156-214C168-194 175-170 181-147C189-115 196-83 201-50C208 0 214 52 216 103C246 98 278 95 308 100C325 104 341 110 354 123C358 127 344 129 341 126ZM56 174C55 194 58 214 67 233C77 253 93 271 112 283C128 294 148 302 167 300C172 300 176 299 179 298C181 297 181 297 182 296C184 295 185 293 187 291C197 276 199 255 201 237C204 208 204 178 204 148C204 137 203 125 203 113C183 116 164 119 144 121C119 124 91 125 66 118C60 136 57 155 56 174ZM197 42C191-26 182-94 163-159C157-180 150-202 137-220C127-236 108-245 88-245C72-245 59-236 49-224C28-199 19-165 13-134C6-97 5-58 7-20C10 11 14 44 27 73C33 85 40 95 51 102C54 104 57 105 59 107C67 88 79 70 96 59C98 57 106 59 103 61C87 73 77 91 70 109C70 109 69 110 69 110C76 113 84 114 92 115C128 118 165 111 200 105C201 105 202 105 202 105C201 84 199 63 197 42ZM107 373C119 374 130 379 141 382C153 386 164 389 176 394C177 394 179 396 177 397C175 399 173 398 171 398C159 395 148 391 137 388C127 384 117 382 107 378C104 378 101 376 102 374C103 372 106 372 107 373Z"  horiz-adv-x="355" vert-adv-y="1000"  />

      
      <glyph glyph-name="uni6b" unicode="&#x6b;" d="M401 127C366 126 334 100 309 78C293 66 279 52 263 39C251 29 239 18 225 10C221 8 216 6 212 6C212 6 211 6 211 6C211 6 210 7 209 7C207 9 205 10 203 12C190 24 180 39 171 53C161 69 152 87 147 105C145 112 143 120 145 127C147 134 155 141 160 146C168 153 176 159 184 166C190 171 196 176 199 184C202 193 201 204 195 211C188 218 179 220 170 219C152 218 140 205 133 189C123 168 120 143 119 119C116 82 115 44 113 6C111-30 110-66 102-102C101-107 100-112 98-117C97-118 97-119 96-120C96-119 96-118 96-117C93-100 94-83 94-66C94-5 98 57 101 119C103 152 105 184 108 216C110 218 113 219 115 221C148 240 183 253 219 264C232 267 246 271 259 275C268 278 278 281 286 287C315 305 327 343 330 375C334 411 326 451 299 477C277 498 243 502 214 497C178 491 147 468 131 435C121 415 118 394 115 373C108 322 104 270 100 219C79 206 60 192 43 176C24 158 6 139-9 118C-10 116-3 116-2 117C28 153 60 185 99 211C99 206 98 201 98 197C93 129 89 60 86-8C86-34 85-59 85-84C85-93 85-101 86-109C86-114 87-119 88-123C90-129 98-127 102-124C109-119 111-107 112-99C116-83 118-67 120-50C121-30 123-10 124 10C126 48 126 87 129 125C131 148 134 173 146 193C152 206 170 223 184 209C192 202 192 189 187 181C183 174 175 168 170 163C162 157 154 150 146 143C141 138 135 132 134 125C133 118 135 110 137 103C139 94 143 86 147 78C155 60 165 43 177 28C185 18 194 5 206 2C217-2 230 5 239 11C253 19 266 31 279 42C294 55 309 69 324 81C337 92 350 102 364 110C375 116 388 122 401 122C407 122 406 127 401 127ZM117 320C119 343 122 366 125 389C130 416 139 442 159 463C182 487 217 498 250 494C265 492 278 486 289 477C303 465 311 448 316 430C326 394 322 353 305 320C298 308 289 295 276 288C267 283 257 280 247 277C216 268 185 260 155 248C139 241 124 233 109 224C111 256 114 288 117 320Z"  horiz-adv-x="391" vert-adv-y="1000"  />

      
      <glyph glyph-name="uni6c" unicode="&#x6c;" d="M346 125C341 113 333 103 325 93C313 79 300 66 286 55C255 30 218 7 178 4C161 2 143 5 129 15C117 23 109 35 104 48C93 72 91 99 90 125C132 131 172 146 208 169C260 203 301 252 326 309C344 352 356 405 340 450C334 468 322 483 306 492C276 509 242 501 215 482C197 470 183 453 171 436C156 416 144 395 134 373C118 338 106 302 98 265C90 230 84 194 82 158C82 148 81 138 81 128C81 128 80 128 80 128C53 125 26 126-1 129C-5 130-8 126-3 125C25 121 54 121 81 124C82 100 85 75 93 53C98 39 105 27 116 17C129 7 144 2 160 1C198-2 235 16 266 36C286 50 305 65 322 83C333 95 346 109 351 124C352 127 346 127 346 125ZM91 153C93 189 98 225 106 260C114 297 125 333 141 368C160 409 185 452 222 480C237 490 254 498 272 497C284 496 296 492 305 485C340 460 342 409 335 371C326 314 296 260 257 219C213 171 154 140 90 130C90 138 91 145 91 153Z"  horiz-adv-x="355" vert-adv-y="1000"  />

      
      <glyph glyph-name="uni6d" unicode="&#x6d;" d="M466 124C448 109 430 93 411 80C400 72 388 65 374 61C367 60 361 60 356 63C349 67 346 74 343 80C336 97 335 117 333 135C331 151 330 170 321 183C317 189 311 193 303 193C291 193 282 183 275 174C257 151 247 123 233 97C233 97 232 96 232 96C232 97 232 99 231 101C230 118 233 135 236 152C239 168 244 185 246 201C247 210 248 222 236 222C228 222 221 216 215 210C207 201 200 191 193 181C175 153 159 124 144 95C131 70 119 45 106 20C105 19 104 17 102 15C102 19 102 22 103 26C104 56 112 86 118 116C121 131 124 147 127 163C129 175 131 188 131 200C131 205 131 212 126 216C123 218 118 218 114 217C108 217 101 214 96 211C80 202 66 188 53 176C34 158 16 141-3 124C-6 122 1 121 3 123C26 141 47 161 69 181C77 189 86 196 95 203C101 207 109 212 117 213C117 213 118 213 118 213C119 212 119 211 120 210C121 207 121 203 121 200C121 187 119 175 117 163C111 131 104 98 98 66C95 53 93 39 92 26C92 19 90 8 96 3C98 1 104 2 106 4C108 6 109 8 111 10C116 18 120 27 125 36C139 64 153 92 168 119C183 146 198 173 216 198C222 204 228 212 235 216C235 215 235 215 235 215C237 211 235 205 235 201C233 184 228 168 225 152C222 135 219 118 221 101C221 96 222 89 225 86C229 83 235 84 238 87C245 94 249 106 253 115C260 129 267 143 275 157C281 167 289 180 300 186C301 187 301 187 302 187C303 187 303 187 304 187C303 187 304 187 304 187C304 187 305 187 305 187C305 187 305 187 306 187C307 186 309 184 311 182C315 176 317 169 318 162C322 144 323 124 326 106C328 90 332 71 345 61C359 51 378 55 392 62C405 67 416 74 427 82C443 94 458 108 472 123C474 125 468 126 466 124ZM237 216L237 216C237 216 237 216 237 217C237 216 237 216 237 216Z"  horiz-adv-x="473" vert-adv-y="1000"  />

      
      <glyph glyph-name="uni6e" unicode="&#x6e;" d="M427 126C402 101 368 63 329 85C317 92 308 103 299 113C289 124 281 136 273 148C262 164 251 180 237 194C227 205 214 217 199 219C178 220 168 201 160 186C151 169 143 151 136 133C125 106 116 78 106 51C102 42 99 33 95 24C96 35 99 47 101 58C107 89 114 120 119 151C121 164 123 178 123 191C124 198 124 208 120 214C118 218 113 219 109 219C112 219 108 219 107 219C105 219 104 218 102 218C100 217 98 216 96 215C84 208 75 196 66 186C56 175 45 165 34 155C20 143 5 132-9 121C-10 119-6 119-6 120C19 130 42 147 61 166C74 178 85 192 98 204C100 206 102 208 104 209C105 210 105 210 106 211C106 211 107 211 107 212C111 206 110 196 110 190C109 160 102 131 96 103C91 76 84 49 81 21C81 16 79 7 84 3C88 0 95 2 98 5C101 9 103 13 105 17C112 31 117 46 122 61C129 81 135 100 143 120C149 139 156 158 164 176C168 184 172 191 176 199C181 207 187 216 198 215C215 213 229 196 238 185C251 170 261 154 272 138C280 127 288 116 297 105C306 95 316 86 329 80C364 63 400 89 425 113C428 117 432 120 435 124C438 128 429 128 427 126ZM86 7C86 7 86 7 86 7C85 7 85 7 86 7Z"  horiz-adv-x="432" vert-adv-y="1000"  />

      
      <glyph glyph-name="uni6f" unicode="&#x6f;" d="M251 125C249 127 245 127 242 126C219 120 196 115 172 112C172 113 172 114 172 115C177 149 176 185 169 220C162 250 147 279 117 293C64 317-11 283-16 222C-18 198-10 173 5 154C-1 130-2 105 2 81C6 57 15 32 34 16C63-8 109-2 135 24C156 45 166 76 171 105C197 108 224 113 249 120C251 121 254 123 251 125ZM11 259C27 281 54 294 81 294C111 293 135 272 147 245C153 231 156 215 159 200C161 183 162 165 162 147C161 135 160 123 159 111C143 110 127 110 111 111C75 115 39 128 17 158C23 179 33 200 48 217C56 226 66 233 77 237C89 242 102 239 115 240C116 240 118 241 116 241C109 242 103 244 96 245C90 245 84 245 78 243C67 241 56 235 47 227C30 213 18 191 10 170C-5 198-8 232 11 259ZM137 46C130 33 120 21 107 14C92 6 73 5 57 12C35 22 23 46 17 69C10 93 10 119 14 143C20 138 26 132 33 128C69 105 115 101 157 104C157 104 157 104 157 104C154 83 148 63 137 46Z"  horiz-adv-x="250" vert-adv-y="1000"  />

      
      <glyph glyph-name="uni70" unicode="&#x70;" d="M319 122C318 124 315 123 313 123C312 123 312 123 310 123C308 123 306 123 304 123C299 123 294 123 289 123C274 124 260 125 246 125C244 125 241 125 239 125C240 131 241 136 242 141C250 203 227 282 159 300C141 305 121 306 103 300C83 293 66 278 53 262C26 227 13 185 5 143C-4 100-7 56-7 12C-7-30-5-72 5-112C11-139 21-176 50-186C62-190 74-190 86-186C94-183 101-177 107-171C118-158 126-143 132-127C147-89 151-47 151-6C151-2 151 2 151 6C170 14 187 28 200 44C219 65 232 92 238 120C251 120 264 119 278 119C290 118 303 117 316 119C317 119 320 120 319 122ZM222 103C210 66 185 31 150 13C150 28 148 43 146 58C143 76 139 95 131 112C131 113 131 114 130 114C159 120 189 121 218 120C221 120 224 120 227 120C226 114 224 108 222 103ZM142 9C123 2 101 1 84 14C67 25 60 45 62 64C66 92 94 105 118 112C121 112 123 113 126 114C137 80 142 44 142 9ZM228 126C200 126 171 126 143 122C138 121 133 121 128 120C127 121 126 123 125 125C125 126 122 126 122 124C123 123 124 121 124 119C102 115 79 107 64 90C55 80 50 66 51 52C52 33 64 16 80 7C99-4 122-4 142 3C142-37 138-78 125-116C116-144 89-202 50-178C39-171 33-159 28-147C21-132 17-115 14-99C6-57 4-14 5 28C6 72 10 115 19 157C29 199 45 244 77 275C92 290 112 299 133 298C149 298 164 293 177 285C204 268 220 238 227 207C234 181 234 153 228 126Z"  horiz-adv-x="318" vert-adv-y="1000"  />

      
      <glyph glyph-name="uni72" unicode="&#x72;" d="M220-77C219-75 216-76 215-76C201-78 188-71 178-61C168-51 163-37 160-23C157-9 158 6 159 21C160 37 163 53 166 69C173 99 187 126 197 155C204 173 215 206 192 218C180 224 165 218 154 213C140 207 125 203 110 200C94 197 78 196 63 197C50 198 36 199 24 206C1 221 3 254 8 277C10 290 16 303 28 309C39 316 52 309 55 297C58 284 53 269 47 257C42 245 33 234 23 225C23 225 24 225 24 225C45 240 59 263 62 289C63 300 59 311 48 314C38 318 27 316 19 311C8 305 2 293-1 282C-4 270-5 257-5 245C-4 232-1 220 8 211C16 202 27 197 39 195C67 189 97 192 125 198C139 201 153 207 167 212C174 215 181 218 188 213C193 210 195 204 196 198C198 186 194 172 190 160C186 145 180 131 175 117C163 89 155 59 152 28C150 2 149-26 162-50C172-70 194-82 217-80C218-80 221-79 220-77Z"  horiz-adv-x="305" vert-adv-y="1000"  />

      
      <glyph glyph-name="uni73" unicode="&#x73;" d="M342 131C333 115 318 102 304 91C286 77 266 66 246 57C230 51 214 45 198 41C188 62 165 74 144 82C119 92 93 97 71 114C59 123 49 136 48 151C47 168 53 184 65 195C82 210 106 217 127 216C152 215 173 202 185 180C186 179 189 179 188 180C178 215 137 224 105 219C89 217 72 210 59 200C46 190 39 175 37 159C34 125 65 105 92 93C123 80 161 76 182 47C184 44 186 42 187 39C154 33 120 31 86 36C71 38 56 41 41 45C29 48 15 52 5 44C-5 36-7 23-5 11C1-21 30-48 58-61C100-79 152-72 182-37C200-18 208 9 200 35C200 35 200 36 200 36C205 37 210 39 214 40C244 48 273 61 299 78C310 86 320 94 329 104C336 112 342 120 348 130C349 132 343 132 342 131ZM177-29C162-50 138-62 113-64C75-67 39-46 18-15C11-4 5 10 6 24C6 29 8 34 12 38C15 43 20 44 25 43C33 41 41 39 48 37C94 26 142 25 189 34C196 13 190-11 177-29Z"  horiz-adv-x="341" vert-adv-y="1000"  />

      
      <glyph glyph-name="uni74" unicode="&#x74;" d="M221 128C209 103 194 81 175 62C158 43 138 27 115 16C94 6 71 5 49 15C25 26 10 48 4 73C-3 103-1 134 1 163C3 196 7 228 12 260C15 281 20 303 24 325C28 325 32 325 36 325C44 325 52 325 59 324C57 315 55 306 53 296C52 294 57 294 58 296C61 305 65 315 67 324C113 324 158 322 203 323C208 323 210 327 204 328C159 330 114 331 69 331C72 344 74 357 76 370C78 384 79 398 74 411C72 418 67 425 59 425C51 425 45 420 40 414C32 404 29 391 27 379C23 363 20 347 16 331C-4 331-25 331-46 330C-73 330-101 330-129 328C-131 327-132 326-130 326C-102 324-75 325-47 325C-27 325-6 325 15 325C12 311 10 298 7 284C1 252-4 220-7 188C-10 158-12 126-9 96C-7 70 1 44 21 25C38 10 61 2 84 3C106 4 127 14 145 26C166 41 184 59 199 80C210 95 219 110 227 127C227 129 221 129 221 128ZM30 355C34 372 36 392 45 408C47 411 49 415 52 417C53 418 54 419 56 420C56 420 56 420 57 421C57 420 58 421 58 421C58 421 58 421 59 421C60 420 61 419 62 418C64 416 66 412 67 408C70 395 69 381 68 367C67 355 64 343 61 331C53 331 46 331 38 331C34 331 29 331 25 331C27 339 28 347 30 355Z"  horiz-adv-x="227" vert-adv-y="1000"  />

      
      <glyph glyph-name="uni75" unicode="&#x75;" d="M453 124C431 110 412 92 388 80C376 74 361 67 347 68C325 69 311 87 301 105C291 123 285 143 272 159C263 170 250 172 238 164C227 158 219 148 212 138C198 119 187 97 177 75C167 54 155 33 135 22C130 19 123 17 117 20C111 22 108 28 106 34C103 43 103 53 104 63C105 74 107 84 109 95C113 117 118 139 122 162C126 177 130 194 130 210C129 214 128 218 125 220C120 223 114 220 110 217C102 211 95 204 87 197C77 187 67 178 56 168C38 151 19 132-3 120C-4 119-1 119-1 119C11 122 21 130 31 137C44 147 56 158 68 169C79 180 90 190 102 200C106 204 110 208 115 212C116 213 118 214 119 215C119 214 119 214 119 214C120 212 120 209 120 207C120 200 119 193 118 185C115 164 110 144 106 123C102 102 97 80 95 58C94 43 96 25 110 17C123 10 139 17 150 25C170 40 180 64 191 86C201 106 212 126 225 143C231 151 240 160 248 163C250 164 250 164 252 164C252 164 252 164 252 164C252 164 252 164 253 164C253 164 253 164 254 164C253 164 255 163 255 164C256 163 257 163 257 163C263 159 267 151 271 145C282 127 288 106 301 88C314 70 333 61 355 63C371 64 386 71 400 78C410 83 420 89 429 95C440 103 451 111 460 122C463 125 455 125 453 124ZM253 164C253 164 253 164 253 164L253 164Z"  horiz-adv-x="459" vert-adv-y="1000"  />

      
      <glyph glyph-name="uni76" unicode="&#x76;" d="M334 127C322 123 309 119 295 118C283 117 271 119 259 122C235 129 215 143 201 163C203 171 205 179 207 187C208 194 210 206 201 209C191 213 183 207 180 197C177 185 181 174 188 164C188 163 189 163 189 162C184 143 176 125 168 107C155 80 141 55 126 30C122 24 119 18 114 13C113 11 110 9 107 8C105 6 102 9 100 11C94 18 92 29 91 38C84 76 85 115 84 154C84 170 84 186 82 201C82 208 82 220 72 220C67 219 64 216 61 212C55 206 51 200 46 194C33 177 22 159 10 142C5 135 1 128-4 121C-4 121-3 121-2 121C12 136 24 153 36 169C47 183 58 199 70 212C70 212 71 212 71 212C72 209 72 206 72 203C73 187 73 171 73 156C73 117 73 77 79 39C80 30 82 21 86 13C92 3 103 0 113 3C125 6 132 21 138 30C145 43 153 56 160 69C174 94 186 120 196 148C196 149 197 150 197 152C210 138 226 127 243 121C273 109 311 109 339 124C344 126 336 127 334 127ZM192 198C193 200 194 202 195 204C196 203 196 202 196 202C198 198 196 192 196 187C195 184 194 180 193 176C190 183 189 190 192 198Z"  horiz-adv-x="336" vert-adv-y="1000"  />

      
      <glyph glyph-name="uni77" unicode="&#x77;" d="M190 129C189 128 190 129 190 129L190 129ZM190 129C190 129 190 129 190 129C190 129 190 129 190 129C190 129 190 129 190 129C190 129 190 129 190 129ZM493 126C491 127 488 127 486 125C462 107 431 95 401 106C387 112 375 120 364 131C365 133 366 135 367 137C378 173 381 216 364 250C359 259 353 269 343 272C334 274 324 270 318 263C304 248 308 223 312 205C318 178 331 153 349 133C350 132 351 131 352 130C350 124 348 119 346 114C339 100 331 88 323 76C316 67 310 58 301 52C292 45 283 46 274 52C263 59 254 70 247 81C238 92 230 104 222 115C215 123 207 131 197 134C186 136 179 132 173 123C166 112 160 99 155 87C148 72 140 56 132 42C124 30 116 17 104 9C92 2 78 9 66 16C50 25 37 40 28 57C8 92 1 136 6 176C10 215 28 255 60 279C83 295 113 302 141 297C149 296 158 293 165 288C170 285 176 281 176 274C177 273 179 274 179 275C179 281 174 287 169 290C160 296 150 299 140 301C112 305 82 299 59 284C26 263 6 226-1 189C-9 149-4 106 12 69C19 51 30 35 44 23C57 11 74 2 91 1C121-2 139 33 151 56C159 70 165 85 173 100C177 109 181 121 189 128C190 129 189 128 190 129C190 129 190 129 190 129C190 129 190 129 190 129C190 129 190 129 190 129C190 129 190 129 190 129C191 129 190 129 191 129C191 129 193 128 193 128C198 126 201 123 205 120C214 110 221 99 229 88C243 68 261 41 288 41C304 41 316 52 325 63C340 81 352 101 361 122C375 109 393 100 412 97C443 92 471 105 495 123C497 124 495 126 493 126ZM337 266C337 266 337 266 337 266C337 266 337 266 337 266C337 266 337 266 337 266ZM342 161C329 183 320 208 320 233C320 242 322 251 327 259C329 262 332 264 335 265C335 266 335 266 336 266C337 266 337 266 337 266C338 266 338 266 339 266C348 261 354 248 357 238C363 221 365 202 364 184C363 169 360 154 356 140C351 147 346 154 342 161Z"  horiz-adv-x="491" vert-adv-y="1000"  />

      
      <glyph glyph-name="uni78" unicode="&#x78;" d="M301 161C300 175 298 188 294 201C292 209 289 216 281 217C264 220 250 200 242 190C224 167 209 142 193 118C190 114 188 110 185 107C173 124 160 141 148 158C139 170 131 181 121 192C115 199 108 207 100 212C93 217 86 218 78 215C65 208 54 195 44 184C33 172 22 159 12 145C8 140 4 134 0 128C-2 125-4 123-5 120C-6 118-7 115-8 113C-8 113-8 113-8 113C-6 116-3 118-1 121C1 124 4 127 6 130C12 137 18 144 23 152C36 167 49 182 63 195C68 201 73 206 80 210C82 211 84 212 86 213C87 214 87 213 88 213C95 211 102 204 107 199C127 178 143 154 160 130C167 120 174 110 180 100C165 76 150 53 133 30C114 3 94-24 70-47C61-57 51-65 40-72C35-75 30-78 25-80C26-80 23-81 23-81C22-81 21-82 20-82C19-82 17-83 16-83C18-83 13-84 15-83C13-84 9-84 9-87C9-89 13-90 15-90C27-89 37-86 48-80C59-73 69-65 79-56C103-33 123-7 142 20C158 42 173 65 188 88C197 75 206 62 215 49C223 39 230 29 238 19C243 13 249 7 256 3C259 1 263 0 266 1C271 2 273 6 276 10C285 22 290 37 294 52C302 87 303 125 301 161ZM278 211C278 211 278 211 278 211C278 211 278 211 278 211C278 211 278 211 279 211C278 211 278 211 278 211ZM278 40C276 32 274 25 270 19C269 16 267 13 265 10C264 9 263 8 263 7C263 7 263 7 263 7C260 9 257 12 254 14C236 33 221 55 206 77C202 83 197 89 193 95C196 100 199 104 202 108C218 133 234 159 251 183C257 190 263 198 270 205C271 206 273 207 274 208C276 209 275 209 277 210C277 209 278 208 278 207C280 202 281 198 282 193C286 178 287 163 288 148C290 112 288 74 278 40Z"  horiz-adv-x="350" vert-adv-y="1000"  />

      
      <glyph glyph-name="uni79" unicode="&#x79;" d="M514 119C505 107 493 98 481 90C467 81 452 74 436 68C409 57 380 49 351 42C351 49 351 55 350 62C349 82 347 103 343 123C340 139 336 155 328 169C325 174 321 178 316 182C313 184 308 187 304 185C301 185 300 182 298 180C295 177 292 173 290 169C270 143 252 117 231 92C220 79 208 67 195 57C187 50 176 42 164 43C153 44 146 54 141 63C134 75 131 90 128 104C121 133 119 163 114 192C113 199 112 209 107 215C101 222 91 215 86 211C78 205 71 198 64 191C55 182 45 173 37 164C23 148 9 132-4 116C-5 114-1 114 0 115C22 141 46 167 71 191C77 197 83 202 89 207C92 209 96 213 100 214C100 214 100 214 100 214C101 213 102 211 103 210C104 207 105 202 106 198C113 170 114 141 120 113C122 98 126 84 132 70C136 60 142 50 151 44C174 31 200 53 215 68C240 92 261 120 281 148C288 158 295 168 303 177C304 178 305 180 307 182C308 181 308 181 309 180C312 179 314 177 316 175C326 164 330 148 334 134C338 114 341 94 342 74C343 63 343 52 344 40C338 39 332 38 327 36C289 28 252 19 215 7C187-2 156-15 135-38C87-89 106-197 181-212C222-220 261-200 287-170C315-138 332-97 342-56C349-26 351 5 351 36C353 37 355 37 358 38C394 46 430 56 463 72C486 83 506 98 521 119C522 121 515 122 514 119ZM285-162C260-193 220-217 180-206C143-196 124-157 121-122C118-88 129-52 156-30C181-10 214 1 244 10C277 19 310 26 344 34C343-35 329-107 285-162Z"  horiz-adv-x="518" vert-adv-y="1000"  />

      
      <glyph glyph-name="uni7a" unicode="&#x7a;" d="M410 127C384 96 347 79 309 67C292 62 275 58 259 55C254 62 249 69 242 75C230 85 214 90 199 93C183 96 167 95 151 92C164 99 177 108 189 117C202 128 215 141 220 157C225 173 219 188 209 201C187 227 147 223 118 213C97 206 78 195 60 183C40 169 19 151 5 131C2 128 0 124-3 121C-3 121-2 120-1 121C32 158 71 192 118 209C135 215 154 219 172 216C188 213 202 204 210 190C226 160 201 132 178 115C165 105 150 96 133 88C117 84 102 78 86 72C83 71 87 69 89 69C105 73 122 78 137 86C151 89 165 92 180 91C204 91 230 82 246 63C248 60 250 57 252 53C230 49 208 44 186 39C147 29 108 16 76-10C45-34 25-70 26-111C28-146 49-180 83-192C118-204 152-192 180-172C213-149 240-116 257-79C274-42 280 1 266 40C264 43 263 47 261 50C284 55 307 61 329 68C362 80 394 97 418 125C420 128 412 129 410 127ZM267 3C268-18 264-39 258-59C244-98 219-134 187-160C160-183 126-201 90-189C55-178 37-140 37-105C37-64 61-29 94-5C127 18 168 30 207 39C223 42 239 45 255 49C262 35 265 18 267 3Z"  horiz-adv-x="414" vert-adv-y="1000"  />

      
      <glyph glyph-name="uni71" unicode="&#x71;" d="M465-120C448-112 431-108 412-110C397-112 383-118 371-127C349-142 335-165 319-186C316-189 313-193 310-196C309-197 308-198 307-198C307-198 307-198 307-198C307-198 307-198 307-198C305-197 304-196 303-195C301-192 300-188 299-185C297-175 297-164 298-153C299-139 301-125 304-112C310-79 319-48 328-16C335 10 343 37 349 64C351 71 353 79 352 86C352 91 349 94 345 94C338 99 328 97 321 94C308 90 297 83 286 76C256 59 229 39 199 22C187 16 174 9 160 7C152 5 144 5 139 13C132 22 131 35 132 46C133 62 138 79 144 94C157 125 179 153 206 174C212 174 218 173 224 173C243 172 263 172 282 173C299 174 317 175 334 180C343 182 357 186 361 195C367 209 343 216 334 218C311 222 287 218 265 212C242 205 221 194 201 180C200 180 199 179 199 178C191 179 183 180 176 180C140 182 104 180 70 171C43 163 11 151-2 124C-3 123 2 122 2 124C11 140 26 150 42 157C62 166 84 171 105 174C127 177 149 178 172 177C179 177 187 176 194 175C164 152 141 119 128 83C123 68 120 53 120 37C121 27 123 16 130 8C138 0 151 0 161 1C175 3 188 9 200 15C231 30 259 51 288 69C299 76 311 83 323 88C325 89 328 90 330 90C331 91 333 91 334 91C334 91 335 91 335 91C335 91 335 91 335 91C335 91 335 91 336 91C337 90 336 91 337 90C338 89 339 89 340 88C341 86 341 83 341 81C340 72 338 63 336 54C329 26 320-2 313-30C304-61 296-93 290-124C288-137 286-150 286-164C286-173 286-183 290-192C293-199 299-205 307-204C315-204 321-197 326-191C343-171 356-149 376-132C387-124 399-118 412-116C427-113 445-116 459-123C461-123 463-123 465-122C466-122 466-120 465-120ZM227 189C249 201 273 210 297 214C308 215 320 216 331 214C338 213 351 210 354 202C357 192 344 187 337 184C321 179 303 178 286 177C267 175 247 175 228 176C222 176 216 177 210 177C216 181 221 185 227 189Z"  horiz-adv-x="386" vert-adv-y="1000"  />

      
      <glyph glyph-name="uni42" unicode="&#x42;" d="M587 123C540 91 486 71 429 68C426 68 423 68 421 68C423 83 424 97 424 112C424 156 413 202 385 236C352 277 301 292 250 290C211 287 175 275 139 259C203 310 243 387 267 465C284 519 292 580 265 632C254 653 238 672 217 684C197 696 173 701 150 698C98 691 59 647 40 601C30 574 25 545 21 517C17 486 14 454 12 422C1 291-3 159 2 27C2 18 3 8 3-1C-4-9-10-17-16-26C-44-67-59-118-52-167C-49-192-37-214-15-228C4-241 28-245 50-246C97-248 146-235 189-217C233-198 273-171 308-138C364-85 406-13 420 63C451 63 483 69 513 79C542 89 569 103 594 120C599 123 590 125 587 123ZM13 269C15 335 20 400 26 466C32 524 36 586 69 635C97 677 149 707 198 686C221 677 239 659 251 638C266 615 272 588 273 561C274 530 267 499 259 469C251 444 242 419 230 395C209 348 180 305 142 270C127 257 110 245 93 235C89 233 85 231 81 229C79 228 79 226 81 225C84 224 87 225 89 226C92 227 96 229 99 231C149 258 201 283 259 285C287 285 315 279 339 265C359 254 375 238 386 219C410 180 416 133 413 88C412 82 411 75 410 68C390 69 370 73 350 78C322 86 294 91 265 93C208 97 150 90 98 68C65 54 36 33 12 8C10 95 10 182 13 269ZM150-225C127-232 104-238 80-240C57-242 32-241 10-233C-13-224-31-206-38-181C-45-156-43-129-38-104C-32-72-17-41 4-15C6-52 9-90 12-127C13-129 18-129 18-127C15-86 14-45 12-4C20 5 29 13 37 21C78 57 130 78 184 86C213 90 242 90 271 87C300 84 328 78 356 70C374 66 392 64 410 63C403 25 388-12 369-46C321-129 242-195 150-225Z"  horiz-adv-x="591" vert-adv-y="1000"  />

      
      <glyph glyph-name="uni43" unicode="&#x43;" d="M678 126C672 103 662 80 652 58C642 36 631 15 618-6C593-46 562-83 528-116C465-175 386-223 300-238C266-244 229-244 195-235C172-229 151-217 132-202C89-167 62-116 44-64C21-1 10 67 8 134C4 206 11 280 27 351C42 419 66 486 103 546C120 574 140 600 163 624C189 649 217 671 251 683C297 699 348 698 395 687C442 675 485 648 513 607C537 571 549 525 535 483C535 483 535 483 535 483C550 520 545 560 528 595C507 636 467 667 424 684C379 701 329 705 281 697C258 693 236 686 216 675C201 667 187 656 174 645C124 603 86 546 59 486C30 421 12 350 2 279C-7 208-7 135 2 64C10 1 26-62 55-119C79-164 114-207 161-230C188-242 217-247 247-247C287-248 327-240 364-226C449-196 523-139 581-71C605-43 626-12 644 21C653 37 661 54 668 71C675 89 681 107 686 125C687 128 679 128 678 126Z"  horiz-adv-x="686" vert-adv-y="1000"  />

      
      <glyph glyph-name="uni4a" unicode="&#x4a;" d="M619 121C603 117 587 113 570 110C556 107 541 104 526 101C499 95 471 91 444 87C423 84 401 82 380 80C389 146 395 212 399 278C402 343 403 408 400 473C398 523 394 573 382 622C378 637 373 653 365 667C362 673 358 677 354 681C338 697 312 699 290 694C253 686 226 657 207 626C205 623 214 622 216 625C230 648 248 669 272 682C293 693 322 697 342 682C353 674 359 660 364 647C370 629 374 610 378 591C382 566 385 541 387 516C392 454 393 392 391 330C389 261 383 192 375 123C373 109 371 94 369 79C348 78 328 77 308 76C249 75 190 80 132 90C115 93 99 96 82 98C71 99 59 99 49 95C46 93 43 90 40 88C33 82 27 76 21 69C11 55 3 40-1 24C-10-9-4-45 7-77C20-112 42-145 68-173C93-200 124-223 159-237C176-244 193-249 211-250C222-251 235-251 246-248C260-244 273-235 283-224C312-192 327-148 340-107C358-48 370 12 379 72C379 73 379 74 379 75C449 81 519 93 588 109C599 112 611 115 622 118C626 119 621 121 619 121ZM340-66C327-113 313-161 287-201C278-215 267-228 255-237C252-238 249-240 246-241C246-241 245-242 244-242C244-242 243-243 242-243C241-243 241-243 240-243C239-244 239-244 239-244C239-244 239-244 238-244C237-244 235-244 234-245C234-245 234-245 234-245C233-245 233-245 233-245C230-245 228-245 225-245C217-245 209-244 201-243C164-236 131-218 103-194C73-170 48-139 30-104C14-73 3-37 5-2C7 33 23 65 50 87C53 89 54 90 57 92C57 92 57 92 58 92C58 92 59 92 59 92C59 92 60 93 60 93C60 93 61 93 61 93C63 93 64 93 65 93C65 93 64 93 65 94C66 94 67 94 68 94C69 94 70 94 71 94C72 94 73 94 73 94C74 94 74 94 75 94C91 93 106 90 122 87C178 78 234 72 291 72C316 72 342 73 368 75C361 27 352-20 340-66Z"  horiz-adv-x="623" vert-adv-y="1000"  />

      
      <glyph glyph-name="uni46" unicode="&#x46;" d="M496 630C461 665 414 694 363 696C338 698 314 692 293 679C272 666 257 648 245 627C210 569 207 500 207 434C208 360 214 287 220 215C222 186 224 158 226 130C184 125 142 115 103 97C74 83 47 63 27 36C8 12-4-18-7-49C-13-112 13-182 66-220C99-242 140-250 180-247C197-246 211-237 222-223C233-207 238-186 242-167C247-140 249-112 250-85C252-15 247 55 241 124C252 125 263 126 273 126C335 129 397 125 458 118C465 117 472 116 479 116C481 115 485 116 486 118C487 120 483 121 482 121C473 122 461 124 451 125C437 127 424 128 411 129C378 132 345 134 312 134C289 134 265 133 241 131C235 207 228 283 224 359C222 393 221 426 222 460C222 487 224 514 228 541C236 583 252 628 283 659C300 677 323 688 347 691C373 694 399 687 422 676C448 665 471 648 491 628C492 626 498 627 496 630ZM234-12C235-45 236-77 234-110C232-135 230-161 223-185C218-202 211-220 198-231C195-234 194-235 190-237C190-237 189-237 189-237C188-237 187-238 187-238C186-238 185-239 184-239C184-239 184-239 184-239C184-239 183-239 183-239C182-239 181-240 180-240C180-240 180-240 180-240C179-240 179-240 179-240C173-240 167-240 161-240C151-240 142-239 132-237C97-230 67-211 46-183C26-157 14-125 9-93C5-64 7-34 18-6C30 25 51 51 77 71C120 102 174 116 227 122C230 77 233 33 234-12Z"  horiz-adv-x="486" vert-adv-y="1000"  />

      
      <glyph glyph-name="uni4d" unicode="&#x4d;" d="M835 123C818 80 793 38 766 1C752-18 736-35 718-51C704-64 687-75 668-80C665-81 661-82 657-82C656-82 654-82 653-82C653-82 653-82 652-82C652-82 652-82 651-82C649-82 647-82 645-81C640-79 636-75 632-71C622-59 617-43 614-28C609-6 607 16 605 38C604 66 604 94 604 122C606 186 611 250 616 314C621 374 627 434 631 493C632 516 634 539 634 562C634 577 634 592 630 607C628 616 625 625 615 625C601 626 589 617 581 606C568 591 558 573 549 555C538 530 528 504 518 478C496 416 478 353 459 290C443 233 428 177 410 121C404 103 399 85 391 68C389 64 387 60 384 56C384 57 383 59 383 59C381 65 380 71 380 77C377 96 377 115 376 135C375 193 376 252 377 310C377 376 377 442 374 508C373 536 371 565 367 593C365 615 361 637 355 659C351 672 345 686 334 695C322 704 307 700 295 694C282 688 272 677 263 666C251 651 243 634 235 617C214 570 200 520 188 471C173 409 161 347 151 285C140 220 131 155 121 89C113 32 106-26 98-84C92-125 86-166 76-205C74-216 71-227 66-237C65-238 65-238 65-239C64-239 64-241 63-241C63-241 63-242 62-242C62-242 62-242 62-242C61-242 60-242 60-242C60-242 60-242 59-242C59-242 59-242 59-242C59-242 59-242 59-242C55-240 51-237 48-233C44-228 41-222 38-216C30-198 26-179 22-160C16-134 14-108 12-82C9-50 8-18 7 13C5 86 6 158 9 231C12 303 16 375 23 447C28 503 33 559 42 615C44 627 46 639 49 651C49 652 45 653 45 651C34 604 29 556 23 509C16 440 10 372 6 303C1 229-2 155-2 81C-2 17-1-48 6-112C8-136 11-159 16-183C20-199 24-216 33-230C39-239 48-248 60-248C70-249 75-244 79-235C84-224 86-213 89-201C93-183 97-164 100-146C109-95 116-43 123 8C132 71 140 134 149 198C159 262 169 327 182 391C194 448 206 504 224 559C231 581 240 603 250 623C257 640 266 656 278 669C282 675 287 680 293 684C296 686 298 688 301 689C302 690 303 691 305 691C305 691 305 692 305 692C305 692 305 692 306 692C307 692 307 692 308 693C312 694 312 694 316 694C316 694 316 695 316 695C316 695 317 695 317 695C317 695 318 695 319 695C319 695 319 695 319 695C319 695 319 695 319 694C324 693 328 689 331 685C340 672 345 654 349 639C354 615 357 590 359 566C365 503 366 439 366 376C366 312 365 249 364 185C364 161 365 136 365 112C366 96 367 79 370 64C372 54 376 44 388 48C397 50 401 64 404 72C412 90 418 109 424 128C432 154 439 181 447 207C465 270 483 334 502 397C520 452 538 509 564 561C572 578 581 595 594 609C596 611 599 613 602 615C602 616 604 617 605 617C605 618 606 618 607 618C607 619 607 619 607 619C607 619 607 619 608 619C608 619 609 619 610 620C610 620 610 620 610 620C610 620 610 620 610 620C611 620 611 620 612 620C612 620 612 620 612 620C613 620 613 620 613 620C613 620 614 620 614 620C615 619 615 619 616 617C617 615 618 613 619 611C620 606 621 600 622 594C624 577 623 558 623 541C621 486 616 431 611 377C606 312 600 248 597 183C594 127 592 70 597 13C599-7 602-27 609-47C613-59 619-73 631-81C649-93 674-86 692-77C710-68 727-55 741-40C758-24 772-5 786 14C808 48 827 84 841 122C842 125 836 125 835 123ZM62-242C62-242 62-242 62-242C62-242 62-242 62-242C62-242 62-242 62-242ZM62-243C62-243 62-243 62-243C62-243 61-243 61-243C61-243 62-243 62-243ZM613 620C613 620 613 620 613 620C613 620 613 620 613 620C613 620 613 620 613 620Z"  horiz-adv-x="841" vert-adv-y="1000"  />

      
      <glyph glyph-name="uni53" unicode="&#x53;" d="M401 536C403 572 394 609 371 638C352 663 324 680 294 689C234 707 162 698 112 660C89 642 70 618 55 592C39 564 30 532 28 499C22 410 77 333 143 279C167 259 193 242 217 222C238 204 259 185 278 164C308 131 334 93 351 51C364 17 369-20 364-55C360-90 347-122 327-150C285-211 213-253 137-243C105-239 75-225 52-202C27-178 13-146 11-111C9-88 12-64 18-41C24-17 35 9 58 23C62 25 53 27 51 26C29 13 16-5 7-28C0-49-4-73-4-96C-5-131 5-166 27-193C71-249 150-262 215-244C287-223 346-163 369-92C379-59 381-24 375 10C368 50 349 87 326 120C296 164 257 201 216 235C192 254 166 271 143 291C123 308 105 327 89 348C64 381 46 419 41 460C36 494 40 528 52 560C63 589 80 615 101 638C121 660 146 675 175 684C234 702 306 692 352 648C383 619 394 577 397 536C398 535 401 535 401 536L401 536Z"  horiz-adv-x="427" vert-adv-y="1000"  />

      
      <glyph glyph-name="uni44" unicode="&#x44;" d="M568 126C526 126 484 126 443 124C444 136 446 148 448 160C457 239 457 320 447 399C438 466 422 534 388 593C375 616 358 638 338 655C303 683 257 695 214 693C190 691 166 684 145 672C132 664 120 654 109 643C88 621 72 595 59 569C27 504 12 432 4 361C-6 282-5 202 2 123C7 78 14 33 24-12C20-17 17-23 14-30C-8-73-10-129 16-171C40-208 77-234 120-243C162-253 206-245 245-227C313-196 359-131 389-64C415-7 431 55 441 117C444 117 446 118 449 118C488 119 528 119 568 120C570 120 575 121 575 123C575 126 570 127 568 126ZM427 96C413 23 390-50 350-114C332-144 309-172 282-194C248-221 206-239 163-240C121-242 82-225 52-196C35-179 22-158 15-134C9-110 10-84 16-60C19-49 24-39 29-29C34-48 40-67 46-85C56-111 67-137 81-161C86-169 93-185 106-181C115-178 118-166 120-159C125-142 127-125 129-107C135-53 137 3 138 58C138 59 138 61 138 63C157 71 177 78 195 84C272 106 352 114 431 117C430 110 429 103 427 96ZM32-24C53 14 90 40 130 59C130 57 130 55 130 52C128-2 127-57 120-111C118-128 116-144 111-161C110-165 108-170 106-174C105-176 104-176 103-178C102-178 102-178 102-178C102-178 102-178 102-178C101-177 101-177 100-177C99-176 97-174 96-173C88-163 81-153 75-142C60-116 50-88 42-60C38-48 35-36 32-24ZM432 124C400 122 367 120 335 117C291 112 248 105 206 94C183 89 161 81 139 72C140 135 140 197 140 259C139 320 138 381 138 442C137 477 136 512 136 547C136 550 129 550 129 547C128 511 129 474 130 438C130 376 131 315 131 254C132 192 131 130 130 69C118 63 106 57 94 50C69 36 45 17 28-7C15 47 9 102 5 157C1 236 3 317 15 395C26 464 44 534 80 594C95 619 113 641 136 659C176 691 229 696 276 681C309 671 336 652 357 626C376 603 390 577 401 550C428 483 440 409 444 337C448 266 444 194 432 124Z"  horiz-adv-x="568" vert-adv-y="1000"  />

      
      <glyph glyph-name="uni45" unicode="&#x45;" d="M871 127C868 128 864 127 862 125C858 119 852 113 847 107C843 101 838 95 833 89C822 77 812 65 801 54C779 29 756 6 732-17C683-62 631-104 576-141C526-174 472-203 415-222C391-231 367-237 341-240C341-240 340-240 340-240C339-240 338-240 338-240C337-240 335-240 334-240C331-241 328-241 325-241C319-241 313-241 308-241C308-241 305-241 305-241C303-241 302-241 301-241C298-241 295-240 292-240C289-240 287-239 284-239C281-238 281-238 277-238C256-233 237-225 220-213C201-199 186-181 175-161C141-104 134-33 133 32C132 75 135 117 139 159C142 186 146 213 150 240C171 249 193 256 214 263C270 281 325 296 381 312C434 328 487 345 538 369C579 388 620 413 648 449C675 485 683 528 675 572C673 581 664 620 655 631C654 631 654 631 654 632C654 632 654 632 654 632C636 661 605 681 573 692C552 698 530 700 509 700C491 700 474 699 457 696C396 686 340 656 296 613C253 571 221 518 197 463C173 409 157 352 145 294C141 277 138 261 135 244C126 240 116 236 107 231C70 214 32 190 10 154C3 143-2 131-3 118C-4 115 5 115 6 117C12 135 20 151 32 165C45 181 61 194 78 204C95 215 114 225 133 233C129 209 126 184 124 159C120 117 117 75 117 33C118-33 126-104 159-162C181-202 218-232 263-244C312-256 364-248 411-234C468-216 523-188 573-156C630-121 682-80 732-35C780 8 826 55 865 107C869 112 872 118 876 123C878 126 873 127 871 127ZM160 294C172 351 189 408 212 462C236 517 268 570 311 611C355 654 410 682 470 690C503 694 539 695 571 684C599 674 632 652 644 631C644 631 685 564 660 488C646 447 611 417 575 395C530 367 479 349 429 334C373 316 316 301 260 285C223 275 187 264 152 250C154 265 157 279 160 294Z"  horiz-adv-x="868" vert-adv-y="1000"  />

      
      <glyph glyph-name="uni41" unicode="&#x41;" d="M598-243C591-244 587-245 581-244C578-244 576-243 573-242C571-242 568-240 565-239C553-233 542-222 534-211C509-178 495-136 484-97C469-48 459 2 451 52C481 59 510 70 538 84C561 95 582 108 602 123C604 125 598 126 597 125C558 96 514 74 467 61C462 59 456 58 450 56C449 61 448 65 448 69C437 132 430 195 423 258C417 319 412 380 407 441C404 491 400 540 397 590C395 619 395 648 391 676C390 681 390 690 383 689C376 688 373 681 370 675C357 646 349 614 340 584C325 532 311 481 297 429C281 366 265 304 248 241C234 182 219 124 204 65C172 74 140 86 110 101C94 109 78 118 62 128C58 143 54 157 48 171C43 184 37 200 24 207C15 213 0 208-4 197C-9 184 3 169 11 160C23 147 38 136 53 126C54 120 56 114 57 109C65 80 71 51 76 22C88-38 97-98 106-158C110-188 114-218 117-249C117-249 117-249 117-249C118-251 121-251 122-251C129-251 131-243 133-237C137-226 140-214 144-202C156-160 167-118 178-76C189-32 201 13 212 57C235 51 258 47 281 44C334 37 389 39 442 50C444 34 447 18 451 2L492-148C504-180 520-215 548-236C563-248 582-252 601-247C607-246 602-242 598-243ZM37 147C25 157 9 171 6 187C5 192 6 198 9 201C10 202 10 202 11 203C11 203 12 204 12 204C13 204 13 204 13 204C13 204 13 204 13 204C13 204 14 204 14 204C14 204 14 204 14 204C14 204 14 204 14 204C14 204 14 204 14 204C14 204 14 204 14 204C14 204 14 204 15 204C15 204 15 204 15 204C15 204 15 204 15 204C16 204 16 204 17 203C16 203 18 202 19 201C21 200 23 198 24 195C29 189 33 182 36 175C41 163 45 150 49 138C45 141 41 144 37 147ZM200 49C186-6 172-61 157-115C148-151 138-187 127-223C127-225 126-228 125-230C123-208 120-186 117-164C108-104 99-45 88 15C82 44 76 74 69 103C68 108 67 113 65 118C67 117 69 115 71 114C112 90 156 72 202 59C201 56 201 53 200 49ZM336 45C295 46 254 52 213 63C216 75 219 87 222 99C239 163 255 228 272 292C288 353 303 414 320 474C332 521 345 568 360 615C364 630 369 645 375 660C376 665 378 671 381 676C382 668 383 660 384 652C387 615 390 577 392 539C395 484 399 429 404 374C409 311 415 248 422 185C428 141 434 98 441 54C407 47 371 44 336 45Z"  horiz-adv-x="600" vert-adv-y="1000"  />

      
      <glyph glyph-name="uni47" unicode="&#x47;" d="M615 18C609 55 590 90 561 113C508 157 432 159 368 143C306 127 242 90 214 31C211 23 208 14 206 5C204 0 218-1 219 4C227 33 246 59 268 79C293 101 322 117 353 128C384 139 417 145 449 143C479 142 510 134 536 116C565 96 586 65 595 31C607-19 593-72 567-115C540-161 498-195 449-217C404-236 356-243 308-242C243-241 175-225 123-183C92-159 69-126 52-90C33-48 24-2 17 43C6 125 4 209 14 291C24 369 44 446 81 515C116 577 166 631 230 662C301 696 388 702 462 676C494 666 524 649 547 625C570 601 583 569 583 536C583 533 591 533 591 536C596 626 507 677 430 693C389 702 346 701 305 694C268 687 232 675 200 656C137 621 90 563 58 499C23 429 5 350-3 272C-12 190-8 106 5 25C12-21 23-67 45-108C62-142 88-172 119-195C174-236 243-249 311-250C361-251 410-243 456-224C506-204 548-170 578-126C606-84 622-32 615 18Z"  horiz-adv-x="691" vert-adv-y="1000"  />

      
      <glyph glyph-name="uni48" unicode="&#x48;" d="M736 119C739 122 735 124 733 125C729 126 724 125 721 123C699 103 673 90 645 82C625 76 605 72 584 71C584 85 584 100 583 114C583 238 582 362 583 486C583 522 583 557 583 593C583 610 583 627 583 645C583 654 583 663 583 672C583 676 584 680 584 684C584 689 582 692 580 697C580 697 577 697 577 697C576 694 573 690 573 687C573 684 573 680 573 677C573 669 573 661 572 653C572 638 572 623 572 608C571 578 571 548 570 517C569 455 569 394 569 332C568 244 568 157 568 70C564 70 559 70 554 70C486 70 415 84 347 102C306 113 265 126 224 139C224 206 224 272 225 339C225 413 226 488 225 563C225 605 225 647 224 689C224 690 220 690 220 689C220 643 218 598 218 553C217 477 216 402 215 326C215 265 214 204 213 143C193 149 173 156 153 162C128 170 104 178 79 184C61 188 43 193 25 192C13 191-1 187-4 175C-6 172-6 168-6 164C-5 157-3 149-1 143C6 121 15 100 25 79C51 20 81-37 111-93C126-120 140-146 156-172C167-191 179-210 192-227C198-235 207-252 219-247C223-245 223-243 223-239C223-236 223-232 223-228C223-221 223-214 223-206C223-190 223-174 223-157C223-78 223 1 224 80C224 96 224 112 224 128C273 112 323 97 374 85C437 70 503 59 568 61C568 28 569-5 569-39C569-107 568-176 572-244C572-249 585-248 585-244C587-185 585-127 585-69C584-25 584 18 584 62C584 62 584 62 584 62C639 66 694 82 736 119ZM212 66C211-12 210-90 209-168C209-188 209-207 209-227C207-225 205-222 204-220C192-200 180-181 169-161C138-105 107-48 78 9C65 36 52 63 40 91C35 102 30 114 26 125C23 134 19 143 17 151C16 156 14 162 14 168C14 169 14 170 14 171C14 171 15 171 15 172C16 173 16 174 16 175C16 173 17 176 17 177C17 177 17 178 18 178C18 178 18 178 18 178C18 179 19 179 19 180C19 180 20 180 21 181C21 181 21 181 21 181C21 181 22 181 22 181C22 181 24 181 25 182C25 182 25 182 25 182C26 182 26 182 27 182C28 182 30 182 31 182C32 182 32 182 32 182C33 182 34 182 35 182C39 181 43 181 47 180C48 180 49 180 50 180C50 180 51 179 52 179C55 179 57 178 60 178C71 175 82 173 92 169C120 162 146 153 173 144C187 140 200 136 213 131C213 110 213 88 212 66Z"  horiz-adv-x="732" vert-adv-y="1000"  />

      
      <glyph glyph-name="uni49" unicode="&#x49;" d="M285 127C282 129 276 129 273 127C255 115 235 106 214 100C198 95 182 94 167 95C147 97 127 103 109 113C109 148 109 183 109 218C109 301 110 384 110 466C110 527 110 588 109 648C109 663 109 677 108 692C108 693 104 693 104 692C104 646 103 601 102 556C101 480 100 405 99 329C99 259 97 190 96 120C94 121 92 122 90 124C72 136 56 150 38 162C26 170 5 176-3 159C-4 156-5 152-6 149C-8 146-9 140-9 136C-10 127-9 119-8 111C-5 85 0 59 6 33C20-30 36-93 55-155C62-177 70-200 78-222C81-227 83-234 87-239C91-247 101-248 109-243C111-241 110-236 110-233C110-229 110-226 110-222C110-214 110-207 110-199C110-183 110-166 110-150C111-112 112-75 109-37C109-27 109-17 109-7C109 3 109 14 109 24C109 45 109 67 109 88C109 92 109 96 109 100C129 91 151 86 173 86C214 84 252 100 286 121C289 123 289 126 285 127ZM96 69C95 48 95 27 95 6C95-4 94-14 94-25C94-35 93-45 93-55C92-91 91-128 91-165C91-177 91-188 91-200C83-179 77-158 70-137C52-75 34-13 21 51C16 74 11 98 10 122C9 129 9 136 10 143C10 143 10 143 10 143C10 144 11 144 11 145C11 145 11 145 11 146C11 146 11 146 11 146C14 149 14 153 15 157C16 158 16 159 17 160C18 159 19 159 20 158C21 158 22 157 22 157C23 156 24 156 25 155C26 154 28 153 30 152C49 138 67 123 87 111C90 109 93 107 96 106C96 94 96 82 96 69Z"  horiz-adv-x="277" vert-adv-y="1000"  />

      
      <glyph glyph-name="uni4b" unicode="&#x4b;" d="M662 126C659 126 655 126 653 123C626 83 596 45 560 14C542-1 522-14 501-23C490-27 480-30 469-32C458-34 447-34 436-34C372-29 316 20 275 66C256 88 239 110 223 133C213 146 204 160 196 173C187 187 179 202 169 215C169 215 169 215 169 216C169 217 169 218 169 219C180 227 192 235 203 243C243 270 284 295 324 322C361 348 398 375 429 409C451 433 470 461 477 493C478 497 465 498 464 493C456 455 431 424 404 398C371 366 332 339 294 313C253 285 210 259 169 230C169 300 169 370 168 440C168 502 167 564 167 626C167 650 167 674 168 698C168 700 161 700 161 698C159 649 159 601 159 552C159 483 160 413 160 344C160 304 160 263 159 223C123 196 89 167 60 132C42 111 27 89 15 64C6 44 0 22-3 1C-10-43-5-88 8-130C20-166 38-202 66-227C78-237 91-245 106-248C113-250 121-251 128-250C131-250 134-250 136-248C144-243 147-231 149-223C153-206 155-188 157-171C163-115 165-58 167-2C168 63 169 129 169 195C173 188 177 182 180 176C188 163 196 151 204 139C219 117 234 97 250 77C276 46 304 18 337-5C361-21 388-34 417-39C442-43 468-42 492-35C539-21 577 11 609 47C631 70 650 95 667 121C669 124 663 126 662 126ZM152-85C151-111 149-137 147-162C145-181 143-200 139-218C137-224 136-229 134-235C133-237 132-239 131-241C129-243 130-242 128-244C128-244 128-244 128-244C121-245 115-244 109-242C95-238 82-229 71-219C43-192 26-154 16-117C5-74 2-28 11 16C22 66 52 111 87 148C109 172 134 192 159 212C159 180 159 149 158 117C157 50 156-17 152-85Z"  horiz-adv-x="664" vert-adv-y="1000"  />

      
      <glyph glyph-name="uni4c" unicode="&#x4c;" d="M415 126C383 45 349-36 301-109C274-149 242-186 205-215C195-222 186-229 176-234C166-238 155-240 144-241C124-242 106-235 93-221C76-205 65-183 56-161C44-134 37-105 31-76C18-5 14 68 14 141C14 218 18 295 26 372C33 435 41 498 54 560C58 580 62 600 68 620C78 651 102 706 144 694C161 689 175 674 183 658C192 638 194 616 195 594C196 557 195 514 170 483C170 483 170 483 170 483C188 502 196 526 200 551C202 564 203 578 203 591C204 606 203 621 201 636C197 661 184 685 160 697C138 708 112 704 93 690C67 671 55 637 47 607C41 584 36 561 32 539C20 473 11 407 5 341C-2 264-5 186-4 109C-3 38 2-33 19-102C25-129 34-157 46-182C57-204 73-228 96-240C117-252 144-252 167-247C178-245 190-240 200-234C210-228 219-221 229-213C266-183 297-145 323-105C370-34 401 45 432 124C435 130 417 131 415 126Z"  horiz-adv-x="414" vert-adv-y="1000"  />

      
      <glyph glyph-name="uni4e" unicode="&#x4e;" d="M581 123C575 104 566 84 557 66C547 45 535 24 523 5C511-14 498-32 483-49C471-62 458-74 442-82C439-83 435-84 432-85C430-86 427-86 424-86C424-86 424-86 424-86C424-86 424-86 423-86C423-86 422-86 422-86C422-86 421-86 421-86C421-85 420-85 419-85C419-85 419-85 419-85C419-85 419-85 419-85C418-85 418-84 417-84C417-84 416-84 416-83C415-83 415-83 415-83C415-83 415-83 415-83C413-81 410-80 409-78C408-77 408-77 408-77C408-77 408-77 408-77C407-76 407-76 406-75C405-74 404-73 404-71C402-68 400-66 399-63C395-56 392-48 390-41C385-21 382 0 380 21C377 47 377 73 376 100C375 162 378 225 382 287C385 351 390 415 393 478C396 528 399 579 396 629C396 644 395 660 391 675C388 684 384 694 374 697C365 700 356 695 350 688C342 679 337 668 332 657C313 619 299 579 285 539C266 483 247 427 229 370C209 307 189 243 168 179C149 118 129 56 108-5C91-55 73-105 53-154C46-171 38-189 29-206C26-212 22-218 18-224C17-227 15-229 13-232C13-232 13-233 12-233C12-233 12-233 12-233C12-233 12-233 12-233C13-168 13-103 14-39C16 46 17 130 19 214C21 295 22 376 24 457C25 490 26 524 26 557C27 583 27 609 28 635C28 655 27 674 28 694C28 697 18 697 18 694C16 660 14 626 12 593C9 525 8 457 6 390C4 306 2 222 0 139C-2 57-4-25-5-106C-5-153-6-200-6-247C-6-250-1-251 1-251C12-252 20-247 27-238C35-228 42-216 48-204C67-164 83-123 98-81C118-25 137 33 156 90C177 154 197 218 217 282C236 343 256 404 276 465C292 513 308 562 327 609C334 626 340 642 348 658C351 664 354 670 357 676C359 678 360 680 362 682C362 683 363 684 363 684C363 684 365 686 365 686C366 687 367 688 368 689C368 689 368 688 369 688C369 688 369 688 369 688C369 688 369 688 369 688C369 687 370 686 370 686C372 684 373 682 373 680C375 675 377 669 378 663C381 645 381 628 382 610C382 586 381 562 380 537C378 477 374 416 370 356C366 291 362 226 360 162C359 108 358 53 366 0C368-19 372-38 378-56C383-68 390-81 401-88C420-101 446-93 464-82C480-72 494-58 506-43C521-26 533-7 545 13C565 47 580 84 592 122C594 126 582 127 581 123Z"  horiz-adv-x="586" vert-adv-y="1000"  />

      
      <glyph glyph-name="uni4f" unicode="&#x4f;" d="M547 459C527 528 497 595 446 646C435 657 423 667 410 676C388 691 362 699 336 701C283 707 230 690 187 659C165 643 145 623 130 601C126 600 122 598 118 596C108 590 102 580 94 571C86 561 79 551 73 540C58 514 47 486 38 458C14 385 2 308-2 232C-6 151 0 67 21-12C41-87 78-159 140-208C162-225 186-238 212-245C233-251 254-251 275-251C310-251 344-245 376-229C419-206 453-168 479-127C500-96 516-62 529-28C557 50 571 132 574 214C577 297 569 380 547 459ZM553 223C551 140 538 58 511-20C498-55 483-89 463-121C437-161 405-199 363-221C347-230 330-235 314-238C305-240 300-240 292-241C285-241 278-241 270-241C249-241 229-240 209-232C183-223 161-207 140-189C84-138 52-64 34 9C15 88 11 172 17 254C22 328 34 403 58 474C66 496 75 519 87 540C92 548 97 556 103 564C108 571 113 579 120 586C120 586 120 586 120 587C89 535 74 473 78 413C86 312 148 219 228 160C243 148 260 139 276 129C281 126 296 130 288 135C266 148 246 164 227 180C208 196 190 215 174 235C143 274 119 320 107 369C85 460 110 563 177 630C211 665 256 688 305 691C330 693 355 689 378 678C394 670 408 659 421 647C472 600 504 533 523 467C547 388 555 305 553 223Z"  horiz-adv-x="645" vert-adv-y="1000"  />

      
      <glyph glyph-name="uni50" unicode="&#x50;" d="M442 599C429 625 411 649 387 666C362 685 332 695 301 697C271 700 240 699 211 690C170 676 139 647 117 612C100 585 89 556 80 527C67 485 60 442 55 399C50 353 48 306 47 260C47 255 47 251 46 247C38 258 31 269 25 282C16 299 9 318 6 338C3 357 4 376 8 395C8 398 1 398 0 395C-10 349-1 300 23 259C30 248 37 238 46 229C45 205 45 182 45 158C44 80 44 2 51-76C54-109 57-142 65-173C70-194 77-218 91-234C102-247 120-253 135-245C146-239 153-226 158-214C166-195 171-175 175-154C180-127 184-99 187-72C194-5 196 61 196 128C196 139 196 149 195 160C268 154 345 178 394 231C437 279 460 344 468 407C477 471 471 540 442 599ZM179-38C176-68 173-98 168-127C164-150 159-173 152-196C147-210 141-226 131-236C131-237 130-238 129-238C127-240 128-239 126-240C126-240 125-241 125-241C125-241 125-241 124-241C124-241 124-241 124-241C123-241 123-241 123-241C123-241 122-241 121-241C121-241 121-241 121-241C121-241 120-241 120-241C120-241 119-241 119-241C119-241 119-241 119-241C118-241 118-241 117-241C117-241 115-240 115-240C114-240 114-239 113-239C113-239 112-239 112-238C111-237 110-237 109-236C94-224 88-201 83-182C75-152 71-120 68-89C60-11 59 67 60 145C60 168 61 191 61 214C83 195 109 181 136 172C153 166 169 162 187 161C187 94 185 28 179-38ZM454 395C444 332 419 268 373 224C341 193 298 175 255 169C235 165 215 165 195 167C194 217 191 268 185 319C182 342 178 366 172 390C168 405 164 421 154 433C152 436 149 439 146 441C145 442 143 441 144 441C154 434 158 420 162 409C168 389 172 367 175 346C183 287 186 227 187 168C158 171 129 180 104 195C88 204 74 216 62 229C62 236 62 243 62 250C63 294 64 337 69 381C73 426 79 471 91 514C100 545 111 576 127 603C138 624 152 642 170 657C177 663 185 668 193 673C201 678 208 680 216 683C220 685 224 686 228 687C228 687 228 687 228 687C229 687 229 687 230 687C230 687 231 688 232 688C234 688 236 689 238 689C242 690 246 690 250 691C250 691 251 691 251 691C251 691 251 691 251 691C252 691 253 691 254 691C256 691 258 691 260 691C267 692 274 692 281 692C281 692 282 692 282 692C283 692 284 692 284 692C286 691 288 691 290 691C293 691 297 691 300 690C330 688 358 677 382 659C405 640 422 615 434 589C461 529 465 459 454 395Z"  horiz-adv-x="500" vert-adv-y="1000"  />

      
      <glyph glyph-name="uni51" unicode="&#x51;" d="M775-215C774-202 773-189 772-177C771-164 768-151 766-138C761-114 753-89 741-67C729-45 712-26 691-11C683-5 675-1 666 4C670 12 673 21 676 30C692 74 704 120 713 167C722 214 729 261 731 309C734 350 733 392 726 432C716 484 698 537 668 582C640 624 600 657 553 677C507 696 456 703 407 698C388 696 370 693 351 688C344 689 337 690 329 690C270 695 210 674 161 642C88 594 39 513 14 431C-9 353-12 270-4 189C4 108 23 27 62-45C107-129 182-198 272-231C315-247 362-252 408-245C451-237 491-218 526-191C588-144 632-78 662-7C663-7 663-7 664-8C686-20 705-38 719-59C733-81 741-105 747-130C750-144 753-158 755-173C757-187 759-201 761-216C761-221 776-220 775-215ZM618 622C659 584 685 532 701 479C713 437 719 395 719 351C720 305 716 258 709 213C701 164 691 117 677 70C670 50 663 29 655 8C644 13 633 17 621 20C596 28 570 33 544 38C514 44 485 52 456 62C401 80 344 104 301 144C228 212 204 316 203 413C203 438 205 464 208 489C212 516 218 543 228 569C239 594 254 617 275 635C295 653 319 665 344 674C348 676 351 677 355 678C423 662 474 605 508 546C510 543 521 544 519 548C497 589 468 628 429 655C412 668 392 677 372 683C457 703 553 682 618 622ZM629-50C607-92 578-131 543-163C511-194 474-219 431-232C389-245 344-244 302-232C253-218 207-190 168-157C134-128 106-92 84-53C42 18 21 99 12 181C4 260 5 343 27 420C41 471 64 519 95 561C116 590 142 616 171 636C218 667 275 687 331 682C332 682 333 682 334 682C308 672 283 659 262 641C219 605 200 552 191 498C184 448 183 396 190 346C196 298 210 250 233 207C259 161 296 125 340 100C366 85 394 73 422 63C452 52 482 43 512 35C559 24 608 19 651-1C644-18 637-34 629-50Z"  horiz-adv-x="833" vert-adv-y="1000"  />

      
      <glyph glyph-name="uni52" unicode="&#x52;" d="M579 122C570 109 559 98 549 86C541 75 533 65 524 55C510 39 495 23 479 9C467-1 454-11 440-18C430-24 419-28 409-30C408-30 406-30 406-30C405-30 404-30 403-30C401-30 400-30 399-30C399-30 398-30 398-30C398-30 397-30 396-30C390-30 389-30 383-28C380-27 381-27 378-26C376-25 373-24 371-23C367-21 364-19 360-16C342-2 328 16 316 34C287 76 265 123 232 163C231 165 230 167 228 168C231 171 235 173 238 175C261 191 283 208 305 226C326 245 346 265 364 286C383 307 401 329 415 354C440 398 450 448 445 498C440 540 425 580 401 615C391 629 380 641 367 652C349 666 329 677 308 684C230 713 133 700 80 632C45 589 28 533 16 479C0 411-6 340-7 271C-9 197-6 124 2 51C8-11 18-73 34-133C41-155 48-177 57-198C64-213 71-227 83-238C90-245 99-249 108-246C121-242 125-225 127-214C136-174 136-134 137-94C138-23 138 48 138 119C147 122 157 126 165 131C183 140 200 150 216 161C248 122 270 77 297 36C321-1 353-38 400-38C426-38 451-25 472-10C507 15 536 48 562 82C572 94 579 108 589 120C591 123 581 124 579 122ZM123 102C123 37 122-27 121-92C120-132 120-174 111-213C109-220 107-227 104-234C103-235 103-236 102-238C100-237 99-236 98-235C97-234 96-233 95-232C94-230 94-231 92-229C81-216 74-200 68-184C47-134 37-79 28-26C17 44 11 115 8 185C6 258 8 331 18 404C26 465 38 527 64 583C75 605 87 626 104 643C133 673 173 689 214 692C262 695 312 681 351 653C380 631 401 598 415 565C433 523 438 476 431 431C427 405 417 380 405 357C391 331 372 308 353 287C315 245 270 209 223 177C222 177 222 177 221 176C209 189 195 200 179 208C166 215 152 218 137 219C137 245 137 271 138 297C138 364 140 431 143 497C144 501 132 501 132 497C127 404 125 312 124 219C121 219 118 218 114 218C90 214 65 200 56 176C46 151 61 129 84 120C97 115 110 114 123 116C123 112 123 107 123 102ZM123 125C118 124 113 124 109 124C98 125 87 130 80 138C60 158 75 188 95 200C104 206 114 209 124 210C124 182 123 153 123 125ZM148 134C145 132 141 131 138 129C137 156 137 183 137 210C145 210 154 208 161 205C180 197 196 184 209 169C190 156 169 144 148 134Z"  horiz-adv-x="582" vert-adv-y="1000"  />

      
      <glyph glyph-name="uni54" unicode="&#x54;" d="M772 698C698 620 608 556 504 526C457 513 409 507 360 508C360 514 360 520 360 526C360 583 360 639 361 696C361 699 352 699 352 696C351 634 350 571 350 508C322 509 295 513 268 518C206 531 147 553 91 580C72 590 54 600 36 609C26 614 15 622 5 622C0 623-8 622-8 616C-8 613-5 611-3 609C0 606 2 604 4 601C19 584 31 564 42 544C76 482 104 416 130 351C163 269 193 186 222 102C251 21 278-61 304-142C315-176 325-210 335-243C337-248 344-247 347-246C355-244 355-230 355-223C357-205 358-186 358-168C361-105 361-42 361 20C361 103 361 187 361 270C361 346 360 423 360 500C372 500 384 500 396 501C489 505 579 536 657 587C704 617 746 654 785 695C789 699 775 701 772 698ZM1 615L1 615C1 615 1 615 1 615C1 615 1 615 1 615ZM350 472C349 386 349 300 349 213C348 133 348 53 347-28C346-84 345-140 342-196C342-201 342-206 341-210C322-148 302-85 282-23C253 62 224 147 192 231C164 308 134 385 100 460C87 489 73 518 57 546C46 566 35 586 20 603C18 605 17 607 15 608C21 605 27 602 33 599C80 574 127 551 177 534C233 515 291 503 350 501C350 491 350 482 350 472Z"  horiz-adv-x="473" vert-adv-y="1000"  />

      
      <glyph glyph-name="uni55" unicode="&#x55;" d="M536 552C536 578 534 604 532 630C530 650 527 670 521 690C520 694 519 698 517 703C516 706 506 705 507 701C513 683 515 664 517 646C520 622 521 597 521 572C522 510 519 448 513 386C506 315 496 245 481 176C468 109 451 42 428-23C409-76 385-129 351-174C338-192 323-209 305-222C290-233 273-241 255-243C245-245 232-245 221-242C219-242 217-241 216-241C214-240 213-240 212-240C212-239 212-239 212-239C212-239 212-239 211-239C211-239 210-239 209-239C203-236 196-233 190-230C188-229 187-228 185-227C184-227 184-226 183-226C183-226 184-226 183-226C182-225 181-224 180-224C175-221 171-218 167-215C146-199 128-180 113-159C90-127 73-91 59-54C40-1 28 55 21 111C10 190 8 271 10 351C12 402 15 453 20 504C26 563 34 621 41 680C41 681 41 681 41 682C42 685 34 685 33 682C22 623 15 564 10 505C5 454 1 403-1 352C-3 272-1 191 9 111C16 55 28-1 47-54C60-91 77-127 100-159C116-181 134-201 155-218C169-228 184-237 200-243C216-249 232-252 249-250C292-247 328-221 355-189C391-147 415-96 435-45C459 18 477 84 492 150C507 219 518 290 526 360C532 424 536 488 536 552Z"  horiz-adv-x="591" vert-adv-y="1000"  />

      
      <glyph glyph-name="uni56" unicode="&#x56;" d="M526 668C524 678 522 687 519 696C518 701 506 699 507 696C512 678 514 658 516 639C517 614 517 589 515 564C512 501 502 438 491 375C478 304 463 234 445 164C427 98 408 32 386-33C368-84 350-134 325-182C317-197 308-213 297-226C293-231 289-235 284-239C282-240 281-241 278-243C277-243 278-243 276-243C276-244 276-244 275-244C275-244 275-244 274-244C274-244 274-244 274-244C274-244 274-244 273-244C274-244 272-244 272-244C272-244 271-244 271-244C271-244 271-244 271-244C271-244 271-244 271-244C270-243 270-243 269-243C269-243 269-243 269-243C269-243 269-243 269-243C262-238 256-231 250-225C235-208 222-188 210-168C179-115 156-56 135 2C111 72 90 143 73 215C55 286 40 357 27 429C17 487 9 545 5 604C4 624 3 644 4 664C5 675 6 688 11 699C12 701 13 702 14 703C16 705 9 706 8 705C1 698-1 686-2 677C-4 659-4 641-3 624C-1 568 6 513 15 458C26 387 40 317 56 248C73 175 92 103 115 33C136-29 158-90 188-147C199-170 212-191 227-211C234-220 240-228 248-235C252-240 257-245 263-248C289-258 310-226 321-209C347-169 365-124 382-79C405-18 425 45 443 109C462 178 479 248 493 319C507 385 518 451 524 518C529 567 533 619 526 668ZM275-244C275-244 275-244 275-244L275-244Z"  horiz-adv-x="582" vert-adv-y="1000"  />

      
      <glyph glyph-name="uni57" unicode="&#x57;" d="M783 341C780 405 770 470 750 531C733 581 707 631 666 666C653 678 637 687 621 695C618 696 615 696 613 694C611 693 611 691 613 690C658 669 691 626 713 583C740 529 754 468 762 408C771 340 772 272 767 204C762 139 752 73 734 10C720-40 702-91 672-134C661-149 647-165 632-175C628-177 625-179 621-181C619-182 618-182 617-183C615-184 613-184 611-185C610-185 609-185 608-186C608-186 608-186 607-186C607-186 607-186 607-186C605-187 603-187 601-187C600-187 600-187 599-187C599-187 599-187 599-187C598-187 596-188 594-188C590-188 587-188 583-188C527-187 479-154 445-111C408-64 384-7 368 51C381 90 392 129 400 169C405 194 409 220 409 246C409 261 409 280 400 293C396 299 391 303 384 304C376 306 367 301 361 295C349 284 343 266 340 250C335 228 334 204 334 180C335 152 338 123 344 95C346 80 350 65 354 50C350 41 347 31 343 21C320-42 293-105 256-161C242-182 226-202 207-219C200-224 191-230 184-234C180-235 175-237 172-237C170-238 168-238 166-238C165-238 164-239 163-239C163-239 163-239 163-239C163-239 163-239 163-239C162-239 162-239 161-239C153-239 147-239 139-237C132-235 125-232 119-228C103-218 91-204 80-189C52-148 37-97 26-49C12 14 6 79 5 143C4 214 8 284 19 354C30 419 46 485 72 546C93 598 123 649 165 686C169 689 172 693 176 696C179 697 171 699 170 697C126 663 95 615 71 565C44 505 26 441 14 377C1 308-5 237-5 167C-5 101-1 35 11-29C21-80 35-132 61-177C79-209 106-238 143-244C161-247 180-244 197-236C217-226 233-209 247-192C266-170 281-144 295-118C312-88 326-57 339-25C347-8 354 10 360 28C372-10 388-46 408-80C438-129 480-172 536-188C560-195 589-198 614-192C631-188 647-178 659-166C694-134 715-88 731-45C753 13 766 75 775 136C784 204 787 273 783 341ZM350 223C352 240 355 258 361 274C364 279 368 286 371 290C373 292 375 294 378 296C378 296 378 296 378 296C378 296 378 296 378 296C379 296 379 297 380 297C380 297 380 297 380 297C380 297 380 297 380 296C380 296 381 296 381 296C384 294 384 293 386 291C390 285 392 278 393 272C397 251 395 228 392 207C386 163 376 119 362 76C351 124 345 174 350 223Z"  horiz-adv-x="833" vert-adv-y="1000"  />

      
      <glyph glyph-name="uni58" unicode="&#x58;" d="M439 571C455 596 472 621 489 646C506 671 524 696 540 722C541 724 535 724 534 723C515 698 496 673 478 647C460 621 443 595 425 569C390 517 356 464 324 411C290 355 256 298 225 241C199 289 174 337 149 385C101 483 56 583 15 685C14 687 5 686 7 683C50 571 99 460 152 352C173 310 195 269 217 228C191 181 166 135 142 88C115 35 89-18 64-72C52-99 40-126 28-153C16-180 3-207-6-235C-7-239 4-239 5-236C20-209 31-181 43-153C56-125 68-98 81-70C107-15 133 40 161 94C182 135 203 174 224 214C257 154 292 94 328 36C356-11 386-57 417-103C432-126 447-148 463-170C479-193 494-216 514-237C516-239 527-238 524-234C517-221 509-209 500-197C492-184 483-172 474-160C457-135 440-110 423-85C389-35 356 16 325 68C293 120 262 174 232 228C267 292 304 355 342 418C373 469 406 520 439 571Z"  horiz-adv-x="586" vert-adv-y="1000"  />

      
      <glyph glyph-name="uni59" unicode="&#x59;" d="M683 126C680 127 677 127 675 126C606 90 532 60 457 41C465 83 471 125 476 168C485 240 490 312 492 384C495 445 495 508 490 569C488 591 486 613 482 635C479 649 476 664 468 676C462 686 450 691 438 686C427 681 419 668 412 658C399 640 388 621 377 601C362 575 347 549 332 523C298 461 264 399 228 338C210 309 192 280 172 252C156 228 139 205 120 183C106 167 90 151 72 141C68 138 65 137 61 136C60 135 58 135 56 134C56 134 56 134 56 134C56 134 56 134 56 134C56 134 55 134 55 134C54 134 53 133 52 133C52 133 51 133 51 133C51 133 51 133 51 133C51 133 51 133 50 133C50 133 50 133 50 133C50 133 49 133 49 134C46 134 47 134 46 135C44 136 43 137 42 138C37 143 33 152 31 159C27 170 25 182 23 193C17 225 15 257 14 289C12 372 16 454 21 536C25 589 29 642 35 695C35 698 27 698 27 695C17 619 11 542 6 465C2 387-2 309 5 231C7 205 10 179 19 155C24 140 34 126 51 126C69 127 86 138 100 149C120 164 136 183 152 202C194 254 228 311 262 368C297 428 330 489 364 550C378 574 391 598 406 622C411 631 417 641 423 650C428 656 433 664 437 669C439 671 441 673 443 676C444 676 445 677 446 678C446 678 447 679 447 679C447 679 447 679 447 679C447 679 447 679 447 679C448 678 449 678 449 677C449 677 450 676 451 675C452 674 452 673 453 672C456 667 458 661 460 655C465 638 468 619 470 600C473 575 475 549 476 523C479 456 477 390 473 324C469 252 462 180 451 108C448 84 444 61 440 37C414 31 388 26 363 23C291 13 217 15 146 30C122 35 98 41 74 49C65 52 59 54 49 58C43 60 36 63 30 65C21 68 7 74-1 67C-4 65-4 60-4 57C-6 45-7 34-7 23C-9 2-8-18-6-39C1-102 30-163 84-200C131-233 190-244 246-236C301-229 354-202 388-158C401-142 410-124 417-105C427-80 435-55 441-29C446-9 451 12 455 33C469 36 483 40 496 44C561 63 623 91 683 122C685 123 685 125 683 126ZM449 680C449 680 449 680 449 680C449 680 449 680 449 680ZM7 62C7 62 7 62 7 62L7 62ZM8 62C8 62 8 62 8 62C7 62 7 62 8 62ZM412-74C405-95 397-117 385-137C374-157 358-175 339-189C318-206 293-217 268-224C243-230 216-232 190-229C164-226 138-218 114-205C89-192 68-173 51-150C8-89 2-11 13 61C15 60 17 59 19 59C19 59 19 58 20 58C20 58 21 58 22 58C23 57 25 57 27 56C30 55 34 53 37 52C46 49 55 46 64 43C119 25 175 14 232 11C301 7 371 14 438 29C431-6 423-40 412-74Z"  horiz-adv-x="677" vert-adv-y="1000"  />

      
      <glyph glyph-name="uni5a" unicode="&#x5a;" d="M757 126C755 127 752 127 750 125C715 100 674 84 633 74C608 68 583 64 558 62C569 87 579 113 585 139C595 181 597 226 581 267C563 314 522 348 476 365C422 386 361 391 304 387C304 387 303 387 303 387C322 401 341 415 358 429C396 461 434 500 448 549C455 572 455 597 448 621C441 644 426 663 405 675C383 688 356 692 331 693C303 694 275 691 247 687C190 678 135 658 86 628C79 624 73 620 67 616C63 614 60 611 59 606C58 603 58 599 60 597C63 594 68 596 70 598C72 600 69 601 67 601C66 601 66 602 66 603C66 605 67 607 68 609C69 612 72 613 74 614C78 617 81 619 85 621C97 629 110 635 123 642C149 655 177 665 205 673C233 680 262 685 292 687C318 689 346 689 372 682C397 675 418 660 431 637C442 615 445 589 441 565C433 513 394 471 355 437C334 419 311 402 288 386C246 381 205 372 167 354C153 348 139 340 127 330C120 325 112 317 112 308C112 300 120 296 127 296C139 295 150 299 161 304C195 317 227 337 258 357C270 364 281 372 292 379C309 381 327 382 344 381C374 381 403 377 432 370C459 363 484 354 507 339C528 324 546 306 559 283C569 265 575 244 578 223C583 177 571 131 555 89C551 79 547 70 543 61C530 60 517 59 504 59C420 59 337 74 254 89C222 95 189 101 157 106C134 108 111 111 89 106C71 101 58 85 48 70C33 47 22 21 14-5C4-34-3-65-6-96C-9-124-9-154-1-181C5-204 18-225 39-237C50-243 63-246 76-247C86-248 96-247 106-246C120-245 134-243 147-241C254-227 357-185 435-110C470-76 501-37 526 4C537 20 546 37 554 54C569 56 584 57 599 60C628 64 656 71 684 82C711 92 736 106 759 123C762 124 759 126 757 126ZM67 600C67 600 67 600 67 601C67 600 67 598 67 600ZM66 601C65 601 64 600 63 600C65 601 66 601 66 601ZM257 365C225 345 192 325 157 310C151 308 145 306 139 304C138 303 135 303 133 303C133 303 132 302 132 302C132 302 131 302 131 302C131 302 130 302 130 302C130 302 130 302 129 302C129 302 129 302 129 302C129 302 129 302 129 302C129 302 128 302 128 302C128 302 128 302 128 303C128 303 128 303 127 303C127 303 128 303 127 303C127 303 126 304 126 305C126 305 125 306 125 308C125 310 126 311 126 313C130 322 140 329 148 335C163 345 180 352 196 358C222 367 248 373 275 377C269 373 263 369 257 365ZM480-42C450-82 414-118 374-147C330-179 281-201 229-216C203-224 176-230 150-234C136-236 123-237 109-238C100-239 88-240 80-240C69-239 58-236 48-230C39-224 31-216 25-207C12-185 8-157 8-132C7-101 12-70 19-40C26-12 36 17 49 43C58 62 69 82 86 95C86 95 89 96 90 97C91 97 91 97 92 98C91 98 93 98 94 99C95 99 95 99 96 99C97 99 97 99 97 99C97 99 97 100 98 100C100 100 102 100 104 101C104 101 104 101 105 101C105 101 105 101 106 101C107 101 108 101 109 101C112 101 114 101 117 101C122 101 126 101 133 101C163 98 192 92 222 87C260 80 299 73 338 67C404 57 472 50 539 54C523 20 502-12 480-42Z"  horiz-adv-x="755" vert-adv-y="1000"  />

      
      <glyph glyph-name="uni61" unicode="&#x61;" d="M649 134C613 95 564 68 510 61C487 58 462 59 441 69C432 74 424 82 419 91C413 102 414 115 402 120C392 125 379 121 370 115C359 109 349 99 340 90C320 71 301 51 279 35C259 20 237 10 213 8C191 6 169 12 153 26C114 60 136 121 168 151C177 160 188 168 199 175C213 172 227 169 241 167C260 164 279 165 298 167C316 169 335 172 352 179C360 183 375 190 368 201C362 212 347 217 335 218C318 221 301 219 284 215C265 211 245 205 227 197C217 192 207 188 197 182C174 188 151 194 127 197C114 199 101 200 88 198C75 196 63 191 52 186C30 174 9 157-5 137C-5 136-6 136-6 135C-8 137-11 134-10 131C-9 129-6 128-4 129C1 130 4 136 8 140C25 160 46 176 71 186C82 191 95 193 107 193C122 193 137 190 152 186C164 184 177 180 189 177C168 164 149 147 136 126C124 105 117 78 124 53C130 32 147 16 168 8C188 1 212 1 233 5C258 11 279 24 298 39C320 56 339 77 359 96C367 104 377 114 390 116C403 119 405 98 409 90C418 70 440 61 460 57C484 52 509 54 533 60C581 70 626 95 657 132C659 135 651 136 649 134ZM-7 135C-7 135-7 134-7 134C-7 135-7 135-7 135ZM273 207C289 211 307 215 324 214C336 213 349 210 356 200C370 180 290 172 282 172C260 171 239 173 218 177C214 178 211 179 207 180C228 192 250 200 273 207Z"  horiz-adv-x="659" vert-adv-y="1000"  />

      
      <glyph glyph-name="uni62" unicode="&#x62;" d="M375 280C399 308 418 341 422 378C428 415 416 460 385 484C351 510 305 500 272 479C248 464 230 443 215 418C199 391 186 362 175 332C154 273 139 208 143 144C139 143 136 142 133 142C90 130 46 124 1 126C-1 127-4 127-5 124C-7 122-3 121-1 121C47 118 96 125 143 138C143 135 143 132 144 130C146 101 154 72 170 48C186 25 209 10 236 3C277-7 317 13 344 44C374 80 388 128 385 175C383 193 379 210 368 224C362 234 354 241 344 247C355 258 366 268 375 280ZM351 235C366 220 374 201 376 181C380 156 377 131 370 107C357 66 328 24 286 9C254-1 219 9 195 31C175 50 164 76 158 103C155 115 154 128 153 141C196 154 237 172 274 195C298 209 320 226 340 244C344 241 348 238 351 235ZM337 252C334 253 331 255 328 256C289 272 247 257 216 230C214 228 220 227 222 229C242 247 266 260 294 259C308 259 321 255 333 248C313 230 290 213 266 199C231 177 193 160 153 147C152 165 153 182 155 200C162 267 183 335 214 396C226 418 239 441 258 458C285 485 329 506 366 486C402 468 415 421 412 384C409 347 390 313 367 284C358 273 348 262 337 252Z"  horiz-adv-x="473" vert-adv-y="1000"  />

      
      <glyph glyph-name="uni63" unicode="&#x63;" d="M322 124C289 89 252 58 210 34C191 23 171 14 150 9C133 6 116 4 100 10C61 27 66 79 73 112C77 131 84 151 95 166C105 169 115 171 125 173C143 177 161 180 179 183C191 185 203 186 214 191C221 193 226 198 221 205C214 215 198 218 187 219C148 222 109 200 86 169C78 167 71 165 65 163C41 154 16 143-2 125C-3 124 1 124 2 124C21 136 41 148 62 156C68 158 74 160 81 162C70 146 64 127 60 108C55 88 54 65 59 45C64 28 74 15 90 7C105 0 124-1 140 2C176 7 210 25 240 44C273 65 304 91 329 122C332 125 323 125 322 124ZM150 208C166 214 183 217 199 212C204 210 209 208 212 204C214 201 214 199 213 197C211 195 208 194 204 193C199 191 193 190 188 189C171 186 154 184 137 181C125 179 113 176 101 173C114 189 131 202 150 208Z"  horiz-adv-x="327" vert-adv-y="1000"  />

      

  </font>
</defs>
</svg>
