<svg width="145" height="97" viewBox="0 0 145 97" fill="none" xmlns="http://www.w3.org/2000/svg">
<path d="M98.3034 11.5377C96.3346 12.2588 94.5047 14.3988 93.555 17.1204C93.2539 17.9811 93.0223 19.3535 92.9528 20.8422C92.8138 23.4242 92.9528 24.5408 93.416 24.2616C93.6245 24.1453 93.6245 24.1919 93.416 24.471C93.1612 24.7501 93.2076 25.0758 93.5782 26.1458C94.1341 27.7974 94.7595 28.8674 95.0374 28.6813C95.1764 28.6115 95.1996 28.658 95.1069 28.7976C94.8753 29.1931 96.2651 30.612 97.5622 31.2633C99.9017 32.4264 102.704 31.8449 104.511 29.8211C108.263 25.6341 108.402 17.7717 104.789 13.5381C103.075 11.5144 100.481 10.7235 98.3034 11.5377ZM98.7435 18.4696C98.813 18.6556 98.7204 18.865 98.5119 18.9348C98.0486 19.1209 97.8865 18.958 98.0486 18.4928C98.2339 18.0508 98.5814 18.0276 98.7435 18.4696ZM98.2108 22.2379C98.2108 22.424 98.095 22.517 97.9791 22.4473C97.8402 22.3542 97.7938 22.1914 97.8633 22.0751C98.0718 21.7494 98.2108 21.8192 98.2108 22.2379ZM97.0526 30.0072C97.0526 30.1235 96.96 30.2398 96.821 30.2398C96.7052 30.2398 96.5894 30.1235 96.5894 30.0072C96.5894 29.8676 96.7052 29.7746 96.821 29.7746C96.96 29.7746 97.0526 29.8676 97.0526 30.0072Z" fill="white"/>
<path d="M120.471 14.6779C115.838 15.5851 111.923 22.4473 112.757 28.2161C113.313 32.1007 115.328 34.4501 118.409 34.8223C119.359 34.9386 119.613 34.8921 119.799 34.5897C119.915 34.3571 120.123 34.1943 120.285 34.1943C120.471 34.1943 120.424 34.2873 120.216 34.4501C119.961 34.6362 120.03 34.6595 120.563 34.5432C121.605 34.3106 123.343 33.1242 124.501 31.8216C125.798 30.3794 127.234 27.495 127.257 26.3319C127.28 25.8667 127.396 25.4014 127.512 25.3084C127.651 25.2154 127.744 24.0523 127.721 22.6333C127.721 20.6096 127.605 19.8652 127.188 18.8185C125.983 15.7247 123.366 14.0964 120.471 14.6779ZM125.08 23.0288C125.08 23.1451 125.034 23.2614 124.987 23.2614C124.918 23.2614 124.802 23.1451 124.732 23.0288C124.663 22.8892 124.709 22.7962 124.825 22.7962C124.964 22.7962 125.08 22.8892 125.08 23.0288ZM127.535 24.3314C127.443 24.5408 127.327 24.6803 127.28 24.6106C127.211 24.5408 127.211 24.3082 127.304 24.0988C127.396 23.8895 127.512 23.7499 127.558 23.8197C127.628 23.8895 127.628 24.1221 127.535 24.3314ZM123.69 24.8664C123.551 25.1456 123.343 25.3549 123.204 25.3549C122.972 25.3549 123.088 25.0525 123.528 24.471C123.875 24.029 123.991 24.3082 123.69 24.8664ZM123.922 26.2854C123.922 26.4017 123.829 26.518 123.69 26.518C123.574 26.518 123.459 26.4017 123.459 26.2854C123.459 26.1458 123.574 26.0528 123.69 26.0528C123.829 26.0528 123.922 26.1458 123.922 26.2854ZM126.47 28.0765C126.47 28.1928 126.354 28.4254 126.238 28.6115C126.053 28.8907 126.006 28.8674 126.006 28.4254C126.006 28.1463 126.122 27.9137 126.238 27.9137C126.377 27.9137 126.47 27.9835 126.47 28.0765ZM120.911 33.0312C120.911 33.1475 120.818 33.2638 120.679 33.2638C120.563 33.2638 120.447 33.1475 120.447 33.0312C120.447 32.8916 120.563 32.7986 120.679 32.7986C120.818 32.7986 120.911 32.8916 120.911 33.0312ZM122.3 33.0079C122.3 33.1475 122.208 33.3103 122.069 33.3801C121.953 33.4499 121.837 33.3568 121.837 33.1708C121.837 32.9614 121.953 32.7986 122.069 32.7986C122.208 32.7986 122.3 32.8916 122.3 33.0079Z" fill="white"/>
<path d="M83.1093 26.1458C77.666 27.5648 76.2068 37.5207 80.7699 42.2427C82.0438 43.5686 83.2252 44.0804 84.8929 44.0571C86.4911 44.0571 87.3945 43.6617 88.6221 42.3823C90.2435 40.7307 91.0311 38.4046 91.0311 35.3341C91.0311 33.2173 90.2899 30.1003 89.8729 30.3561C89.7339 30.4492 89.6413 30.2398 89.6413 29.9142C89.6413 29.6118 89.3633 29.0302 89.0391 28.6115C88.5526 28.0533 88.3673 27.9602 88.1125 28.1696C87.9041 28.3324 87.7883 28.3557 87.7883 28.1928C87.7883 28.0533 87.9272 27.9137 88.0894 27.8439C88.6916 27.6113 86.3522 26.1924 85.0087 26.0063C84.5686 25.9365 83.7116 26.0063 83.1093 26.1458ZM86.4448 31.6588C86.6996 31.7286 86.7922 31.8681 86.6764 32.031C86.5375 32.2636 86.3753 32.2403 85.9815 31.9612C85.7036 31.7751 85.5414 31.496 85.6109 31.3564C85.7036 31.1936 85.8194 31.1936 85.9121 31.3564C85.9815 31.4727 86.2363 31.6123 86.4448 31.6588ZM87.6724 31.6355C87.7419 31.7518 87.7188 31.8681 87.5798 31.8681C87.464 31.8681 87.2787 31.7518 87.2092 31.6355C87.1397 31.496 87.1629 31.4029 87.3018 31.4029C87.4176 31.4029 87.603 31.496 87.6724 31.6355ZM88.6221 31.7751C88.5526 31.9844 88.4831 32.2403 88.4831 32.3566C88.4831 32.4729 88.3905 32.566 88.2515 32.566C88.1357 32.566 88.0199 32.3101 88.0199 31.9844C88.0199 31.6123 88.1589 31.4029 88.3905 31.4029C88.6453 31.4029 88.7148 31.5192 88.6221 31.7751ZM89.2012 32.7753C89.0622 33.0079 89.0391 33.2638 89.1085 33.3569C89.178 33.4266 89.1317 33.4964 88.9927 33.4964C88.8306 33.4964 88.7148 33.4034 88.7148 33.2871C88.7148 32.8684 88.9927 32.3334 89.2012 32.3334C89.3402 32.3334 89.3402 32.5195 89.2012 32.7753ZM86.5375 33.0777C86.3058 33.2173 86.0742 33.2406 85.9815 33.1475C85.7731 32.9614 86.4448 32.566 86.6996 32.7288C86.8154 32.7986 86.7459 32.9614 86.5375 33.0777ZM83.8737 33.7523C84.1285 34.0082 84.2906 34.2873 84.2212 34.3571C84.059 34.5199 83.1557 33.7523 83.1557 33.4499C83.1557 33.1475 83.341 33.2173 83.8737 33.7523ZM85.2403 33.4964C85.2403 33.6127 85.1477 33.729 85.0087 33.729C84.8929 33.729 84.7771 33.6127 84.7771 33.4964C84.7771 33.3569 84.8929 33.2638 85.0087 33.2638C85.1477 33.2638 85.2403 33.3569 85.2403 33.4964ZM89.8729 33.9617C89.8729 34.078 89.7571 34.1943 89.6181 34.1943C89.5023 34.1943 89.456 34.078 89.5255 33.9617C89.595 33.8221 89.7108 33.729 89.7803 33.729C89.8266 33.729 89.8729 33.8221 89.8729 33.9617ZM90.5678 34.0547C90.5678 34.1245 90.4752 34.2408 90.3362 34.3106C90.2204 34.3804 90.1045 34.3338 90.1045 34.2175C90.1045 34.078 90.2204 33.9617 90.3362 33.9617C90.4752 33.9617 90.5678 34.0082 90.5678 34.0547ZM82.9935 34.5199C83.063 34.706 82.9472 34.8921 82.7156 34.9619C82.3913 35.0317 82.3218 34.9619 82.3913 34.6362C82.5303 34.1245 82.8314 34.0547 82.9935 34.5199ZM90.7994 35.59C90.7994 35.7063 90.6836 35.8226 90.5446 35.8226C90.4288 35.8226 90.3825 35.7063 90.452 35.59C90.5215 35.4504 90.6373 35.3573 90.7068 35.3573C90.7531 35.3573 90.7994 35.4504 90.7994 35.59ZM86.3985 36.4041C86.3985 36.4739 86.1668 36.7763 85.9121 37.0554C85.4951 37.4741 85.4256 37.4974 85.5646 37.1485C85.6341 36.9159 85.7036 36.6135 85.7036 36.4972C85.7036 36.3808 85.8657 36.2878 86.051 36.2878C86.2363 36.2878 86.3985 36.3343 86.3985 36.4041ZM89.4097 36.5204C89.4097 36.6367 89.2938 36.753 89.1549 36.753C89.0391 36.753 88.9927 36.6367 89.0622 36.5204C89.1317 36.3808 89.2475 36.2878 89.317 36.2878C89.3633 36.2878 89.4097 36.3808 89.4097 36.5204Z" fill="white"/>
<path d="M45.3305 26.9135C45.3999 27.1461 45.6779 27.5648 45.9327 27.8439C46.4886 28.472 46.2106 28.565 45.5621 27.9602C45.2146 27.6811 45.0757 27.6346 45.0062 27.8439C44.844 28.3091 44.4734 28.1928 44.4734 27.7043C44.4734 27.4717 44.3113 27.1926 44.1028 27.1228C43.5469 26.9135 42.6204 26.96 42.6204 27.2159C42.6204 27.3322 42.4583 27.3787 42.273 27.3089C41.7634 27.0996 39.586 29.4489 38.8448 31.0075C36.1579 36.6135 37.9183 44.3362 42.4351 46.6624C45.4694 48.2209 49.0597 46.6159 50.8432 42.9173C52.7889 38.8698 52.4415 33.1475 50.0325 29.7048C49.4071 28.7976 49.0829 28.5185 48.7122 28.565C48.4343 28.6115 48.1563 28.5185 48.0637 28.3789C47.971 28.2394 47.9942 28.1463 48.11 28.1696C49.0365 28.3324 47.6931 27.2159 46.5581 26.8902C45.1452 26.4715 45.1683 26.4715 45.3305 26.9135ZM45.7706 29.1931C45.7242 29.3559 45.7937 29.6118 45.9327 29.7513C46.257 30.077 46.6276 30.1003 46.4423 29.7746C46.3728 29.635 46.4423 29.542 46.6276 29.542C46.8129 29.542 47.0214 29.7048 47.114 29.8909C47.1835 30.1003 47.114 30.2398 46.9055 30.2398C46.7202 30.2398 46.5581 30.3329 46.5581 30.4492C46.5581 30.5655 46.257 30.5422 45.8632 30.4027C45.1683 30.1468 44.9367 29.4955 45.3999 29.1931C45.5389 29.1 45.5621 28.9372 45.4926 28.7976C45.3768 28.6348 45.4463 28.6115 45.6084 28.7046C45.7706 28.8209 45.84 29.0302 45.7706 29.1931ZM47.2298 28.9372C47.4614 29.2163 47.4151 29.2396 47.0214 29.1466C46.4423 28.9837 46.1643 28.6115 46.6276 28.6115C46.8129 28.6115 47.0908 28.7511 47.2298 28.9372ZM44.0102 30.3794C44.0102 30.5655 43.9175 30.6585 43.7785 30.5888C43.6627 30.519 43.5469 30.3561 43.5469 30.2166C43.5469 30.1003 43.6627 30.0072 43.7785 30.0072C43.9175 30.0072 44.0102 30.1701 44.0102 30.3794ZM44.9367 31.0075C44.9367 31.147 45.0988 31.4494 45.3305 31.682C45.5389 31.9147 45.6316 32.1705 45.5389 32.2636C45.3305 32.4729 44.4271 31.4494 44.5892 31.1703C44.6587 31.0307 44.6124 30.9377 44.4966 30.9377C44.3576 30.9377 44.2418 30.8446 44.2418 30.7051C44.2418 30.5888 44.4039 30.5422 44.5892 30.612C44.7745 30.7051 44.9367 30.8679 44.9367 31.0075ZM41.2306 30.9377C41.2306 31.054 41.138 31.1703 40.999 31.1703C40.8832 31.1703 40.7674 31.054 40.7674 30.9377C40.7674 30.7981 40.8832 30.7051 40.999 30.7051C41.138 30.7051 41.2306 30.7981 41.2306 30.9377ZM41.2306 33.2638C41.2306 33.636 41.0685 33.9617 40.86 34.0547C40.6284 34.1478 40.5589 34.1012 40.6747 33.9151C40.7905 33.7523 40.8368 33.3336 40.8137 32.9614C40.7674 32.566 40.86 32.3566 40.999 32.4497C41.1148 32.5195 41.2306 32.8916 41.2306 33.2638ZM42.1571 34.1943C42.1571 34.3106 42.0413 34.4269 41.9023 34.4269C41.7865 34.4269 41.7402 34.3106 41.8097 34.1943C41.8792 34.0547 41.995 33.9617 42.0645 33.9617C42.1108 33.9617 42.1571 34.0547 42.1571 34.1943ZM45.5158 34.4501C45.7706 34.8456 45.4926 34.9386 45.1683 34.5432C44.983 34.3338 44.983 34.1943 45.122 34.1943C45.261 34.1943 45.4463 34.3106 45.5158 34.4501ZM46.3265 34.4269C46.3265 34.5432 46.2338 34.6595 46.0948 34.6595C45.979 34.6595 45.8632 34.5432 45.8632 34.4269C45.8632 34.2873 45.979 34.1943 46.0948 34.1943C46.2338 34.1943 46.3265 34.2873 46.3265 34.4269ZM46.5581 35.3806C46.5581 35.5202 46.4654 35.5434 46.3265 35.4736C46.2106 35.4039 46.0948 35.2178 46.0948 35.1015C46.0948 34.9619 46.2106 34.9386 46.3265 35.0084C46.4654 35.0782 46.5581 35.2643 46.5581 35.3806ZM42.9678 36.2878C43.0373 36.4041 42.991 36.5204 42.8752 36.5204C42.7362 36.5204 42.6204 36.4041 42.6204 36.2878C42.6204 36.1482 42.6667 36.0552 42.713 36.0552C42.7825 36.0552 42.8983 36.1482 42.9678 36.2878ZM48.6428 37.4509C48.6428 37.5672 48.5269 37.6835 48.388 37.6835C48.2722 37.6835 48.2258 37.5672 48.2953 37.4509C48.3648 37.3113 48.4806 37.2183 48.5501 37.2183C48.5964 37.2183 48.6428 37.3113 48.6428 37.4509ZM45.0525 40.7075C45.122 40.8238 45.0757 40.9401 44.9599 40.9401C44.8209 40.9401 44.7051 40.8238 44.7051 40.7075C44.7051 40.5679 44.7514 40.4748 44.7977 40.4748C44.8672 40.4748 44.983 40.5679 45.0525 40.7075ZM44.1491 43.1964C43.9175 43.429 43.7091 43.0801 43.9175 42.7777C44.0565 42.5219 44.1028 42.5219 44.1955 42.7777C44.2418 42.9406 44.2186 43.1266 44.1491 43.1964ZM45.4926 43.1732C45.5621 43.3593 45.5389 43.4523 45.3999 43.3825C45.261 43.3127 45.1683 43.1499 45.1683 43.0103C45.1683 42.6847 45.3305 42.7545 45.4926 43.1732Z" fill="white"/>
<path d="M20.8934 30.4957C18.7624 31.5657 17.4421 34.0314 17.2105 37.3345C16.8167 43.3592 20.8008 49.5002 25.526 50.1516C30.0428 50.7796 33.2624 45.5923 32.1274 39.5444C31.3862 35.683 28.9541 32.0077 26.2209 30.6585C24.6458 29.8909 22.2137 29.8211 20.8934 30.4957Z" fill="white"/>
<path d="M130.014 34.0547C127.559 35.2177 125.775 37.4043 124.733 40.5911C123.552 44.1036 124.27 48.2906 126.308 49.8259C127.443 50.6866 127.651 50.7796 127.489 50.3842C127.397 50.1748 127.489 49.9655 127.698 49.8724C127.906 49.8026 127.999 49.5933 127.953 49.4305C127.814 49.0815 128.624 48.5465 128.925 48.8024C129.041 48.8954 128.995 48.8024 128.833 48.593C128.601 48.2906 128.647 48.1511 129.018 47.8022C129.273 47.5695 129.481 47.4998 129.481 47.6393C129.481 47.8022 129.643 47.9185 129.829 47.9185C130.014 47.9185 130.176 48.0813 130.176 48.2674C130.176 48.4535 130.084 48.6163 129.968 48.6163C129.852 48.6163 129.69 48.9187 129.597 49.2909C129.504 49.7096 129.342 49.9422 129.18 49.8724C129.018 49.8259 128.694 49.9189 128.439 50.1283C127.976 50.4772 127.976 50.4772 128.439 50.8494C129.389 51.5938 132.215 50.7796 134.068 49.1978C136.615 46.988 138.353 42.4288 137.866 39.1954C137.727 38.2417 137.612 38.0324 137.125 37.9161C136.801 37.823 136.407 37.8695 136.268 37.9859C135.897 38.265 135.897 38.1719 136.222 37.2647C136.384 36.7995 136.569 36.5902 136.801 36.6832C137.31 36.8693 137.195 36.4506 136.453 35.4271C135.087 33.5197 132.4 32.9614 130.014 34.0547ZM133.975 33.9151C134.137 34.171 133.882 35.1247 133.651 35.1247C133.419 35.1247 133.234 34.4036 133.35 34.0082C133.465 33.6825 133.79 33.636 133.975 33.9151ZM134.67 35.9388C134.925 36.1249 135.064 36.3576 134.971 36.4506C134.878 36.5204 134.623 36.4273 134.415 36.2412C134.183 36.0319 133.859 35.9388 133.72 35.9854C133.558 36.0552 133.419 35.9854 133.419 35.8458C133.419 35.4736 134.16 35.5434 134.67 35.9388ZM135.04 37.5671C134.878 37.7532 134.832 37.9161 134.925 37.9161C135.017 37.9161 134.971 38.0789 134.809 38.265C134.647 38.4511 134.438 38.6139 134.322 38.6139C133.929 38.6139 134.114 37.9626 134.647 37.6137C135.295 37.1484 135.411 37.1252 135.04 37.5671ZM130.755 38.6139C130.825 38.7302 130.778 38.8465 130.663 38.8465C130.524 38.8465 130.408 38.7302 130.408 38.6139C130.408 38.4743 130.454 38.3813 130.5 38.3813C130.57 38.3813 130.686 38.4743 130.755 38.6139ZM133.419 40.0329C133.419 40.1724 133.326 40.1957 133.187 40.1259C133.072 40.0561 132.956 39.87 132.956 39.7537C132.956 39.6142 133.072 39.5909 133.187 39.6607C133.326 39.7305 133.419 39.9165 133.419 40.0329ZM136.893 39.777C136.893 39.8933 136.778 40.0096 136.639 40.0096C136.523 40.0096 136.477 39.8933 136.546 39.777C136.615 39.6374 136.731 39.5444 136.801 39.5444C136.847 39.5444 136.893 39.6374 136.893 39.777ZM134.6 40.6144C135.11 41.0564 134.925 41.6379 134.299 41.6379C134.021 41.6379 133.882 41.7542 133.952 41.9403C134.091 42.3357 133.512 43.1499 133.326 42.8242C133.234 42.6847 133.002 42.6614 132.77 42.7312C132.423 42.8707 132.423 42.8475 132.678 42.4986C132.863 42.2892 132.933 42.0101 132.84 41.8705C132.631 41.5448 133.558 40.6377 133.882 40.8237C134.021 40.8935 134.044 40.8005 133.975 40.6144C133.79 40.1259 134.091 40.1492 134.6 40.6144ZM135.828 42.5916C135.666 42.8475 134.577 42.8707 134.577 42.6149C134.577 42.2659 134.809 42.1729 135.388 42.2892C135.712 42.3357 135.897 42.4753 135.828 42.5916ZM131.126 43.8245C130.917 44.0803 130.917 44.1734 131.149 44.2664C131.358 44.3362 131.288 44.5223 130.894 44.8712C130.593 45.1271 130.315 45.3597 130.292 45.3597C130.13 45.3597 130.292 44.4758 130.524 44.1966C130.663 44.0106 130.871 43.6384 130.987 43.3825C131.103 43.0801 131.195 43.0103 131.265 43.2197C131.334 43.3825 131.265 43.6616 131.126 43.8245ZM132.724 43.964C132.724 44.0803 132.631 44.1966 132.492 44.1966C132.377 44.1966 132.261 44.0803 132.261 43.964C132.261 43.8245 132.377 43.7314 132.492 43.7314C132.631 43.7314 132.724 43.8245 132.724 43.964ZM128.323 46.0576C128.323 46.1739 128.231 46.2902 128.092 46.2902C127.976 46.2902 127.86 46.1739 127.86 46.0576C127.86 45.918 127.976 45.8249 128.092 45.8249C128.231 45.8249 128.323 45.918 128.323 46.0576ZM125.428 46.2902C125.219 46.6158 125.613 46.5926 125.961 46.2436C126.401 45.8017 126.262 46.36 125.798 46.9182C125.289 47.523 124.733 47.6393 124.941 47.0811C125.011 46.8717 125.08 46.5693 125.08 46.3832C125.08 46.1971 125.196 46.0576 125.335 46.0576C125.451 46.0576 125.497 46.1506 125.428 46.2902ZM131.265 46.9415C131.45 47.0578 131.404 47.2671 131.056 47.6859C130.616 48.2441 130.593 48.2674 130.709 47.7324C130.802 47.3835 130.709 47.2206 130.477 47.2206C130.292 47.2206 130.223 47.1043 130.292 46.988C130.454 46.7089 130.871 46.6856 131.265 46.9415ZM126.933 48.2674C126.609 48.6628 126.239 48.7326 126.239 48.3604C126.239 48.2441 126.331 48.1743 126.447 48.2674C126.563 48.3372 126.748 48.1511 126.841 47.8719C126.933 47.5463 127.049 47.4532 127.119 47.6393C127.165 47.8022 127.072 48.0813 126.933 48.2674ZM127.165 49.6631C127.165 49.8492 127.072 50.012 126.933 50.012C126.818 50.012 126.702 49.8492 126.702 49.6631C126.702 49.477 126.818 49.3142 126.933 49.3142C127.072 49.3142 127.165 49.477 127.165 49.6631Z" fill="white"/>
<path d="M103.029 36.7298C101.292 37.288 99.6241 38.5674 97.9795 40.5679C96.8677 41.917 96.6593 42.266 96.8677 42.6381C97.1225 43.1266 96.9835 43.4058 96.6129 43.1499C96.474 43.0801 96.4276 42.8708 96.5203 42.7312C96.6129 42.5916 95.4316 43.7314 93.9029 45.2667C91.6561 47.5696 90.7759 48.2907 89.085 49.2211C86.4907 50.6401 84.962 52.1055 84.0818 54.013C81.418 59.8283 84.0355 64.8993 90.4979 66.4345C91.795 66.7369 92.8837 66.7835 96.7056 66.6439C102.079 66.4811 104.558 66.7602 107.731 67.9465C112.526 69.7144 113.522 70.0168 115.19 70.2959C118.641 70.831 122.254 69.7377 124.061 67.5976C125.52 65.8763 126.215 62.9686 125.775 60.3633C125.428 58.2931 124.385 56.4322 122.185 53.9664C121.096 52.7569 120.146 51.5938 120.077 51.3612C120.007 51.1286 119.799 50.9425 119.614 50.9425C119.428 50.9425 119.336 50.8494 119.405 50.7098C119.475 50.5935 119.313 50.0585 119.035 49.5003C118.757 48.9652 118.131 47.4067 117.622 46.0576C115.259 39.6839 113.615 37.823 109.445 36.753C107.198 36.1715 104.789 36.1715 103.029 36.7298ZM98.6281 43.4058C98.6281 43.8012 98.5355 43.9175 98.3733 43.7547C98.2575 43.6384 98.2112 43.3592 98.2807 43.1732C98.4891 42.6381 98.6281 42.7312 98.6281 43.4058ZM109.793 49.3142C109.793 49.4305 109.631 49.5468 109.422 49.5468C109.237 49.5468 109.144 49.4305 109.214 49.3142C109.283 49.1746 109.445 49.0816 109.584 49.0816C109.7 49.0816 109.793 49.1746 109.793 49.3142ZM116.139 50.4075C116.047 50.6401 115.954 51.1751 115.954 51.5705C115.977 52.3614 115.722 52.594 115.514 52.0125C115.329 51.5473 115.769 50.012 116.093 50.012C116.232 50.012 116.255 50.1748 116.139 50.4075ZM118.595 50.5005C118.595 50.6168 118.502 50.6633 118.363 50.5935C118.247 50.5238 118.131 50.6633 118.131 50.9425C118.131 51.2216 118.039 51.3612 117.9 51.2914C117.46 51.0122 117.645 50.2446 118.131 50.2446C118.386 50.2446 118.595 50.3609 118.595 50.5005ZM105.855 51.8497C105.855 51.966 105.693 52.1055 105.531 52.1753C105.299 52.2684 105.23 52.1986 105.322 51.966C105.461 51.617 105.855 51.524 105.855 51.8497ZM107.708 51.8729C107.708 51.9892 107.615 52.1055 107.476 52.1055C107.361 52.1055 107.245 51.9892 107.245 51.8729C107.245 51.7334 107.361 51.6403 107.476 51.6403C107.615 51.6403 107.708 51.7334 107.708 51.8729ZM112.456 53.9199C112.271 54.106 111.877 53.6873 112.016 53.4547C112.109 53.3151 112.225 53.3384 112.364 53.5245C112.456 53.6873 112.503 53.8734 112.456 53.9199ZM104.697 53.9664C104.697 54.0828 104.535 54.1991 104.326 54.1991C104.141 54.1991 104.048 54.0828 104.118 53.9664C104.187 53.8269 104.349 53.7338 104.488 53.7338C104.604 53.7338 104.697 53.8269 104.697 53.9664ZM121.374 54.4084C121.374 54.5247 121.212 54.6643 121.027 54.7573C120.679 54.8736 120.563 54.641 120.841 54.3619C121.05 54.1293 121.374 54.1525 121.374 54.4084ZM120.679 56.153C120.679 56.2228 120.587 56.3391 120.448 56.4089C120.332 56.4787 120.216 56.4322 120.216 56.3158C120.216 56.1763 120.332 56.06 120.448 56.06C120.587 56.06 120.679 56.1065 120.679 56.153ZM106.202 57.6883C106.272 57.8046 106.179 57.9209 105.994 57.9209C105.785 57.9209 105.623 57.8046 105.623 57.6883C105.623 57.5487 105.716 57.4557 105.832 57.4557C105.971 57.4557 106.133 57.5487 106.202 57.6883ZM117.83 59.6887C117.761 59.7585 117.552 59.7818 117.39 59.712C117.205 59.6422 117.274 59.5724 117.529 59.5724C117.784 59.5492 117.923 59.619 117.83 59.6887ZM95.8949 60.1075C95.8949 60.1772 95.8022 60.2935 95.6632 60.3633C95.5474 60.4331 95.4316 60.3866 95.4316 60.2703C95.4316 60.1307 95.5474 60.0144 95.6632 60.0144C95.8022 60.0144 95.8949 60.0609 95.8949 60.1075ZM116.162 60.9449C116.232 61.0612 116.186 61.1775 116.07 61.1775C115.931 61.1775 115.815 61.0612 115.815 60.9449C115.815 60.8053 115.861 60.7122 115.908 60.7122C115.977 60.7122 116.093 60.8053 116.162 60.9449ZM91.1465 61.3636C91.077 61.4333 90.8917 61.3636 90.7295 61.2007C90.5211 60.9681 90.5442 60.9449 90.8685 61.0844C91.1001 61.1542 91.216 61.2938 91.1465 61.3636ZM117.205 61.1775C117.205 61.2938 117.089 61.4101 116.95 61.4101C116.834 61.4101 116.788 61.2938 116.857 61.1775C116.927 61.0379 117.043 60.9449 117.112 60.9449C117.158 60.9449 117.205 61.0379 117.205 61.1775ZM118.039 62.736C117.784 62.9919 117.645 62.6429 117.83 62.201C117.992 61.7823 118.015 61.7823 118.085 62.1777C118.131 62.4103 118.108 62.6662 118.039 62.736ZM119.452 62.8058C119.428 63.3175 119.058 63.4571 119.058 62.9686C119.058 62.6895 119.266 62.3405 119.428 62.3405C119.475 62.3405 119.475 62.5499 119.452 62.8058ZM117.39 63.1314C117.344 63.3175 117.529 63.6432 117.784 63.8293C118.039 64.0154 118.154 64.248 118.062 64.3643C117.946 64.4573 117.738 64.3875 117.599 64.2015C117.297 63.806 117.019 63.7595 116.556 64.0619C116 64.4108 116 64.0386 116.556 63.4338C117.158 62.7592 117.483 62.6662 117.39 63.1314ZM115.815 64.2015C115.815 64.3178 115.722 64.4341 115.583 64.4341C115.468 64.4341 115.352 64.3178 115.352 64.2015C115.352 64.0619 115.468 63.9688 115.583 63.9688C115.722 63.9688 115.815 64.0619 115.815 64.2015ZM114.703 64.7132C114.541 64.876 114.425 64.8993 114.425 64.7597C114.425 64.4341 114.703 64.1549 114.865 64.3178C114.912 64.3875 114.842 64.5736 114.703 64.7132ZM124.964 64.6667C124.895 64.783 124.71 64.8993 124.594 64.8993C124.455 64.8993 124.432 64.783 124.501 64.6667C124.571 64.5271 124.756 64.4341 124.872 64.4341C125.011 64.4341 125.034 64.5271 124.964 64.6667ZM116.278 65.1319C116.278 65.2482 116.186 65.3645 116.047 65.3645C115.931 65.3645 115.815 65.2482 115.815 65.1319C115.815 64.9923 115.931 64.8993 116.047 64.8993C116.186 64.8993 116.278 64.9923 116.278 65.1319ZM117.436 65.2482C117.853 65.4808 117.9 65.5739 117.622 65.5971C117.089 65.5971 116.51 65.3413 116.51 65.1086C116.51 64.8295 116.765 64.8528 117.436 65.2482ZM113.499 65.6902C113.499 65.8763 113.337 66.0624 113.151 66.1554C112.85 66.2485 112.827 66.2019 113.035 65.8298C113.337 65.2947 113.499 65.225 113.499 65.6902ZM114.564 65.9461C114.981 66.295 114.981 66.295 114.448 66.2485C114.124 66.2019 113.846 66.0391 113.777 65.8763C113.661 65.4808 114.008 65.5274 114.564 65.9461ZM115.236 68.877C115.329 68.9933 115.166 69.0863 114.912 69.0863C114.309 69.0863 114.101 68.7374 114.657 68.6909C114.912 68.6676 115.166 68.7374 115.236 68.877Z" fill="white"/>
<path d="M59.7141 41.5681C59.4825 41.6146 59.2972 41.8007 59.2972 41.9403C59.2972 42.1264 59.2277 42.1031 59.0887 41.917C58.8108 41.4518 57.7684 42.0333 56.5871 43.336C54.7804 45.2899 53.9697 47.6161 53.9697 50.7331C53.9697 54.3619 55.2437 57.1998 57.5137 58.6652C58.556 59.3398 58.9034 59.4329 60.2237 59.4329C61.2197 59.4096 62.0073 59.27 62.5169 58.9909C63.8835 58.2698 65.2269 56.6415 66.0376 54.7341C66.7788 53.0127 66.8252 52.7801 66.8252 50.0585C66.8252 47.523 66.7788 47.1508 66.3851 46.8717C66.1303 46.6624 66.0145 46.4065 66.1071 46.1739C66.4314 45.3132 64.4394 42.6381 62.9338 41.8938C62.0073 41.4518 60.687 41.3122 59.7141 41.5681ZM59.8531 43.0103C59.9226 43.1266 59.8299 43.336 59.6678 43.4755C59.3899 43.7082 59.3667 43.6616 59.4593 43.2895C59.5983 42.7544 59.6678 42.7079 59.8531 43.0103ZM58.6023 43.8012C58.6023 43.9175 58.5097 43.9175 58.3707 43.8477C58.2549 43.7779 58.1391 43.5221 58.1391 43.3127C58.1391 42.9638 58.1854 42.9638 58.3707 43.2662C58.4865 43.4523 58.6023 43.7082 58.6023 43.8012ZM58.9961 44.5456C58.9498 45.2667 58.6255 45.383 58.278 44.8247C58.0927 44.499 58.0927 44.3595 58.3707 44.1966C58.9034 43.8477 59.0424 43.9175 58.9961 44.5456ZM60.9186 46.7554C60.9186 47.1276 60.826 47.4532 60.687 47.4532C60.5712 47.4532 60.4553 47.2904 60.4553 47.0811C60.4553 46.8484 60.3164 46.7554 60.1079 46.8484C59.6215 47.0345 59.6678 46.5926 60.1774 46.3134C60.8028 45.9413 60.9186 46.011 60.9186 46.7554ZM59.7373 47.965C59.7605 47.7789 59.9226 47.6859 60.1311 47.7324C60.6407 47.8254 60.7796 49.6398 60.3164 50.0353C59.7836 50.4772 59.9458 50.8727 60.826 51.2914C61.4282 51.5705 61.5903 51.7566 61.3819 51.8729C61.1966 51.9892 60.9418 51.9194 60.7565 51.7333C60.5712 51.5472 60.2932 51.4077 60.1311 51.4077C59.9458 51.4077 59.6678 51.2449 59.5057 51.0122C59.2277 50.6866 59.2277 50.6168 59.5057 50.5237C59.691 50.454 59.7141 50.3609 59.5752 50.2679C59.3204 50.105 59.2277 49.4072 59.2972 48.1511C59.3204 47.4765 59.3667 47.4067 59.5288 47.8022C59.6446 48.058 59.7373 48.1278 59.7373 47.965ZM56.147 49.2444C55.8691 50.5703 55.7996 50.6401 55.4753 50.012C55.0352 49.2444 55.0584 49.0118 55.4753 49.1746C55.6838 49.2444 55.8228 49.1746 55.8228 48.9652C55.8228 48.7791 55.9386 48.6163 56.0544 48.6163C56.1934 48.6163 56.2397 48.8955 56.147 49.2444ZM57.7916 49.9887C57.6526 50.4772 57.2125 50.6633 57.2125 50.2446C57.2125 50.105 57.3052 50.012 57.421 50.012C57.5368 50.012 57.5831 49.7794 57.5137 49.477C57.3978 49.0815 57.4442 49.035 57.6758 49.2211C57.8379 49.3839 57.8843 49.7096 57.7916 49.9887ZM58.8339 50.9657C58.8339 51.082 58.7413 51.1751 58.6023 51.1751C58.4865 51.1751 58.3707 51.0122 58.3707 50.8029C58.3707 50.6168 58.4865 50.5237 58.6023 50.5935C58.7413 50.6633 58.8339 50.8261 58.8339 50.9657ZM55.6838 51.082C55.9154 51.6636 55.8459 51.7799 55.3363 51.8031C54.9889 51.8264 54.8962 51.7566 54.9889 51.5007C55.0584 51.2914 55.1279 51.0355 55.1279 50.9192C55.1279 50.5703 55.5216 50.6866 55.6838 51.082ZM57.9306 52.2916C57.699 52.7336 56.8419 52.9197 56.6335 52.5475C56.5408 52.4312 56.7493 52.3381 57.0736 52.3381C57.3978 52.3381 57.7221 52.2218 57.7916 52.1055C58.0464 51.7101 58.1622 51.8496 57.9306 52.2916ZM55.4753 52.3381C55.5448 52.4544 55.4985 52.5708 55.3827 52.5708C55.2437 52.5708 55.1279 52.4544 55.1279 52.3381C55.1279 52.1986 55.1742 52.1055 55.2205 52.1055C55.29 52.1055 55.4058 52.1986 55.4753 52.3381ZM60.4553 52.8266C60.4553 52.9429 60.3627 53.036 60.2237 53.036C60.1079 53.036 59.9921 52.8731 59.9921 52.6638C59.9921 52.4777 60.1079 52.3847 60.2237 52.4544C60.3627 52.5242 60.4553 52.6871 60.4553 52.8266ZM59.3899 54.3154C59.8531 55.0132 59.8763 55.2691 59.413 54.8969C59.1351 54.6643 59.0424 54.6875 58.9266 54.9899C58.8571 55.1993 58.9034 55.5017 59.0424 55.6878C59.2277 55.9204 59.2277 56.06 58.9729 56.2693C58.7413 56.4787 58.5792 56.4321 58.3475 56.153C58.0696 55.8041 58.0232 55.8041 57.9074 56.2693C57.7916 56.7811 57.7916 56.7811 57.2125 56.153C56.7724 55.6645 56.7261 55.5482 57.0504 55.6645C57.3052 55.7576 57.4442 55.711 57.421 55.5249C57.3052 54.5945 57.9074 54.3154 58.3707 55.0597C58.5792 55.4086 58.6023 55.3621 58.4865 54.8271C58.2549 53.664 58.7645 53.3616 59.3899 54.3154ZM61.8451 54.0595C61.8451 54.1293 61.7525 54.2456 61.6135 54.3154C61.4977 54.3851 61.3819 54.3386 61.3819 54.2223C61.3819 54.0827 61.4977 53.9664 61.6135 53.9664C61.7525 53.9664 61.8451 54.013 61.8451 54.0595ZM58.417 57.2696C58.278 57.4091 58.0696 57.4556 57.9769 57.3626C57.8843 57.2696 57.9538 57.1067 58.1391 56.9904C58.5792 56.7113 58.7645 56.9206 58.417 57.2696Z" fill="white"/>
<path d="M10.1688 49.384C9.01069 49.9888 7.80622 51.6171 7.36612 53.1058C7.22714 53.6408 7.11133 54.9202 7.11133 55.967C7.18082 61.3171 11.1185 66.3881 15.2878 66.4113C16.7239 66.4113 18.16 65.9228 17.9747 65.4809C17.8126 65.0389 18.0906 64.8528 18.438 65.1552C18.8549 65.5041 20.0594 63.7828 20.5458 62.1312C21.1481 60.061 20.6153 55.0365 19.8509 55.525C19.6888 55.618 19.6656 55.525 19.7583 55.2691C19.9899 54.7108 18.9244 52.7104 17.6736 51.3845C15.4731 49.0351 12.4156 48.2209 10.1688 49.384ZM15.4731 51.2914C15.311 52.059 15.8438 52.5243 16.1912 51.9427C16.3997 51.5705 16.4228 51.5705 16.446 51.9195C16.446 52.1288 16.6776 52.3382 16.9787 52.3847C17.303 52.4312 17.5115 52.6406 17.5578 52.9662C17.6041 53.2686 17.7663 53.5012 17.9516 53.5012C18.299 53.5012 19.6888 54.6643 19.6888 54.9667C19.6888 55.0598 19.5962 55.083 19.4572 55.0132C19.0634 54.7574 18.716 55.1295 19.0171 55.5017C19.2024 55.7343 19.1792 55.8972 18.8549 56.2228C18.6233 56.4787 18.4148 56.5485 18.3685 56.3857C18.3222 56.2461 18.0211 56.1763 17.6736 56.2461C17.1872 56.3391 17.0946 56.2926 17.2104 55.9902C17.2799 55.7809 17.2567 55.5482 17.1409 55.4785C17.0019 55.3854 16.9093 55.2226 16.9093 55.083C16.9093 54.9434 16.9787 54.8969 17.0714 54.9667C17.1409 55.0598 17.3493 55.0132 17.5347 54.8737C17.7663 54.6643 17.9284 54.6876 18.1832 54.8969C18.3917 55.0598 18.6233 55.1063 18.716 55.0132C18.8086 54.9202 18.7391 54.7806 18.577 54.7341C18.3454 54.6411 18.3454 54.548 18.577 54.2456C18.7391 54.013 18.7623 53.9199 18.6696 54.013C18.5538 54.106 18.1832 53.9897 17.8358 53.7339L17.1872 53.2686L17.0251 53.8036C16.9093 54.1758 16.8398 54.2223 16.7703 53.9665C16.7008 53.7804 16.585 53.4547 16.5155 53.2686C16.4228 53.0825 16.3997 52.7801 16.4228 52.6173C16.446 52.4777 16.3997 52.3382 16.3302 52.3382C16.1217 52.3382 15.172 52.8964 15.0099 53.1523C14.9172 53.2686 14.7783 53.2919 14.6624 53.1988C14.5698 53.0825 14.6161 52.943 14.7551 52.8499C14.8941 52.7569 15.0794 52.2451 15.172 51.6869C15.2647 51.1518 15.3805 50.7099 15.45 50.7099C15.5195 50.7099 15.5195 50.9658 15.4731 51.2914ZM14.2918 54.1293C14.2224 54.3619 14.176 54.2223 14.176 53.8502C14.176 53.4547 14.2224 53.2919 14.2918 53.4315C14.3382 53.5943 14.3382 53.9199 14.2918 54.1293ZM14.593 54.8969C14.593 55.0132 14.4771 55.1295 14.3382 55.1295C14.2224 55.1295 14.176 55.0132 14.2455 54.8969C14.315 54.7574 14.4308 54.6643 14.5003 54.6643C14.5466 54.6643 14.593 54.7574 14.593 54.8969ZM17.72 58.1535C17.9284 58.5024 17.6736 58.4327 17.2799 58.014C17.0714 57.8279 16.9093 57.4324 16.9093 57.1533C16.9093 56.6881 16.9324 56.7113 17.2335 57.2696C17.4188 57.6418 17.6505 58.014 17.72 58.1535ZM14.7551 57.5022C14.6856 57.6883 14.6161 57.6185 14.6161 57.3626C14.593 57.1068 14.6624 56.9672 14.7319 57.0602C14.8014 57.13 14.8246 57.3394 14.7551 57.5022ZM17.6736 60.4099C17.9747 60.8286 17.5578 60.7821 17.0019 60.3634C16.6313 60.061 16.6081 59.9912 16.9093 59.8051C17.1409 59.6423 17.2799 59.6423 17.3493 59.8516C17.3957 60.0144 17.5347 60.2703 17.6736 60.4099ZM18.4148 60.247C18.3454 60.3866 18.438 60.5494 18.6233 60.6192C18.8318 60.689 18.9476 60.8518 18.8781 60.9682C18.8086 61.0612 18.6001 61.1077 18.4148 61.0147C18.0211 60.8751 17.9284 60.0144 18.3222 60.0144C18.438 60.0144 18.4843 60.1307 18.4148 60.247ZM16.6776 60.4797C16.6776 60.596 16.5155 60.7123 16.307 60.7123C16.1217 60.7123 16.0291 60.596 16.0985 60.4797C16.168 60.3401 16.3302 60.247 16.4692 60.247C16.585 60.247 16.6776 60.3401 16.6776 60.4797ZM20.3837 60.8053C20.3837 60.8751 20.291 60.9914 20.1521 61.0612C20.0362 61.131 19.9204 61.0845 19.9204 60.9682C19.9204 60.8286 20.0362 60.7123 20.1521 60.7123C20.291 60.7123 20.3837 60.7588 20.3837 60.8053ZM15.9827 61.2938C15.9827 61.4799 16.1449 61.6427 16.3302 61.6427C16.7239 61.6427 16.7471 61.6893 16.5386 62.201C16.3302 62.736 15.9827 62.6662 15.9827 62.108C15.9827 61.759 15.8206 61.6427 15.4268 61.6427C15.1025 61.6427 14.7783 61.5264 14.6856 61.3869C14.593 61.2008 14.6856 61.1775 15.0331 61.2938C15.311 61.3869 15.5195 61.3403 15.5195 61.2008C15.5195 61.0612 15.6353 60.9449 15.7511 60.9449C15.8901 60.9449 15.9827 61.1077 15.9827 61.2938ZM15.5426 63.806C15.3573 63.9921 15.2878 63.9689 15.2878 63.713C15.2878 63.2478 15.589 62.9221 15.7048 63.271C15.7743 63.4339 15.6816 63.6665 15.5426 63.806ZM15.2415 64.4341C15.589 64.4574 15.589 64.4806 15.2184 64.69C14.7319 64.9691 14.1297 64.8063 14.1297 64.4108C14.1297 64.2713 14.2918 64.2247 14.5003 64.2945C14.7088 64.3643 15.0331 64.4341 15.2415 64.4341ZM14.6856 65.853C14.5003 66.1787 14.1297 66.0857 14.1297 65.7135C14.1297 65.5041 14.2687 65.4343 14.4771 65.5041C14.6624 65.5972 14.7551 65.7367 14.6856 65.853Z" fill="white"/>
<path d="M17.8821 55.4087C17.9284 55.5482 18.1137 55.7343 18.2527 55.7808C18.4148 55.8274 18.4843 55.7343 18.3917 55.5017C18.2295 55.083 17.7431 54.99 17.8821 55.4087Z" fill="white"/>
<path d="M35.9719 51.966C33.9336 52.4312 32.6133 53.0825 31.4088 54.1991C29.9032 55.5948 29.1389 56.9207 27.6796 60.689C25.8729 65.3878 25.0853 66.7835 22.6532 69.5516C21.4951 70.9008 20.2906 72.5291 19.9895 73.2036C18.4144 76.6696 18.9703 80.9497 21.2866 83.2758C24.2051 86.1835 28.6293 86.5789 34.2115 84.4156C40.0949 82.136 42.0638 81.8103 48.4104 82.0197C52.1397 82.136 53.2051 82.0895 54.5023 81.7871C59.7834 80.531 62.563 76.972 61.8449 72.3895C61.4975 70.3192 61.0111 69.1794 60.6173 69.5283C60.432 69.6679 60.2235 69.7144 60.154 69.6214C60.0614 69.5516 59.7834 69.6679 59.5286 69.9005C59.2738 70.1331 59.0654 70.2494 59.0654 70.1797C59.0654 69.9703 59.9456 69.0864 60.1077 69.1096C60.6173 69.1794 60.7563 68.8305 60.3393 68.5048C60.0845 68.2955 59.8992 68.0396 59.9224 67.9233C60.0382 67.5279 58.023 65.7832 56.4248 64.8528C53.1588 62.9686 51.1205 61.224 49.059 58.4792C48.5494 57.7813 48.0166 57.2928 47.8777 57.3859C47.7619 57.4557 47.7155 57.4091 47.8082 57.2696C47.9935 56.9439 45.7235 54.2456 44.5654 53.4547C42.1564 51.7799 39.1221 51.2681 35.9719 51.966ZM44.6349 61.4566C44.5654 61.6427 44.4959 61.5729 44.4959 61.3171C44.4727 61.0612 44.5422 60.9216 44.6117 61.0147C44.6812 61.0844 44.7043 61.2938 44.6349 61.4566ZM28.027 62.2243C28.027 62.4103 27.9807 62.5732 27.9344 62.5732C27.8881 62.5732 27.7954 62.4103 27.7028 62.2243C27.6333 62.0382 27.6796 61.8753 27.7954 61.8753C27.9344 61.8753 28.027 62.0382 28.027 62.2243ZM32.289 63.1547C32.3585 63.3408 32.3122 63.5036 32.1964 63.5036C32.0574 63.5036 31.9647 63.3408 31.9647 63.1547C31.9647 62.9686 32.0111 62.8058 32.0574 62.8058C32.1037 62.8058 32.1964 62.9686 32.289 63.1547ZM49.5686 63.0384C49.5686 63.1547 49.4759 63.271 49.3369 63.271C49.2211 63.271 49.1053 63.1547 49.1053 63.0384C49.1053 62.8988 49.2211 62.8058 49.3369 62.8058C49.4759 62.8058 49.5686 62.8988 49.5686 63.0384ZM30.9224 64.155C30.7139 64.3643 30.1117 63.9689 30.1117 63.5967C30.1117 63.2245 30.158 63.2245 30.575 63.6199C30.8297 63.8526 30.9919 64.0852 30.9224 64.155ZM50.7267 63.5036C50.7267 63.6199 50.6804 63.7362 50.6341 63.7362C50.5646 63.7362 50.4488 63.6199 50.3793 63.5036C50.3098 63.3641 50.3561 63.271 50.4719 63.271C50.6109 63.271 50.7267 63.3641 50.7267 63.5036ZM44.7043 64.4341C44.7043 64.5504 44.5885 64.6667 44.4496 64.6667C44.3337 64.6667 44.2874 64.5504 44.3569 64.4341C44.4264 64.2945 44.5422 64.2015 44.6117 64.2015C44.658 64.2015 44.7043 64.2945 44.7043 64.4341ZM43.0829 65.8298C43.0829 66.0856 42.9903 66.295 42.8745 66.295C42.7587 66.295 42.7123 66.0856 42.7818 65.8298C42.8513 65.5739 42.944 65.3645 42.9903 65.3645C43.0366 65.3645 43.0829 65.5739 43.0829 65.8298ZM56.9807 66.7835C56.9807 66.8998 56.8881 66.9928 56.7491 66.9928C56.6333 66.9928 56.5174 66.83 56.5174 66.6207C56.5174 66.4346 56.6333 66.3415 56.7491 66.4113C56.8881 66.4811 56.9807 66.6439 56.9807 66.7835ZM59.5286 68.1327C59.5055 68.3653 58.8337 69.1794 58.7643 69.0631C58.6948 69.0166 58.7179 68.5514 58.7874 68.0629C58.8801 67.2255 58.9264 67.1789 59.2043 67.5744C59.3897 67.807 59.5286 68.0629 59.5286 68.1327ZM43.3609 68.2024C43.1988 68.3653 43.0829 68.3885 43.0829 68.249C43.0829 67.9233 43.3609 67.6442 43.523 67.807C43.5694 67.8768 43.4999 68.0629 43.3609 68.2024ZM58.6021 68.1559C58.6021 68.2722 58.5558 68.3885 58.5095 68.3885C58.44 68.3885 58.3242 68.2722 58.2547 68.1559C58.1852 68.0163 58.2315 67.9233 58.3473 67.9233C58.4863 67.9233 58.6021 68.0163 58.6021 68.1559ZM58.6021 69.5749C58.6021 69.6912 58.5095 69.7842 58.3705 69.7842C58.2547 69.7842 58.1389 69.6214 58.1389 69.412C58.1389 69.2259 58.2547 69.1329 58.3705 69.2027C58.5095 69.2725 58.6021 69.4353 58.6021 69.5749ZM58.1389 70.5518C58.1389 70.6681 58.0462 70.6681 57.9072 70.5984C57.7914 70.5286 57.6756 70.2727 57.6756 70.0633C57.6756 69.7144 57.7219 69.7144 57.9072 70.0168C58.023 70.2029 58.1389 70.4588 58.1389 70.5518ZM47.0206 70.1099C47.0206 70.1797 46.928 70.296 46.789 70.3657C46.6732 70.4355 46.5574 70.389 46.5574 70.2727C46.5574 70.1331 46.6732 70.0168 46.789 70.0168C46.928 70.0168 47.0206 70.0633 47.0206 70.1099ZM58.6021 71.7847C58.2547 72.1801 57.9072 72.2034 57.9072 71.808C57.9072 71.6451 58.1157 71.5056 58.3936 71.4823C58.7874 71.4358 58.8106 71.5056 58.6021 71.7847ZM57.6756 72.2267C57.6756 72.4127 57.5829 72.5988 57.4671 72.6686C57.3513 72.7384 57.2818 72.5523 57.2818 72.2267C57.2818 71.901 57.3513 71.7149 57.4671 71.7847C57.5829 71.8545 57.6756 72.0406 57.6756 72.2267ZM60.8026 73.7154C60.7331 73.855 60.4783 73.9713 60.2698 73.9713C59.9687 73.9713 59.9687 73.9247 60.3625 73.6456C60.8489 73.2967 61.0574 73.3199 60.8026 73.7154ZM34.281 82.671C34.281 82.7408 34.1884 82.8571 34.0494 82.9269C33.9336 82.9967 33.8178 82.9502 33.8178 82.8338C33.8178 82.6943 33.9336 82.578 34.0494 82.578C34.1884 82.578 34.281 82.6245 34.281 82.671Z" fill="white"/>
</svg>
